<svg width="541" height="417" viewBox="0 0 541 417" fill="none" xmlns="http://www.w3.org/2000/svg">
<g id="Group 2085661855">
<g id="Group 2085661848">
<path id="Vector" d="M461.778 194L469.251 208.077C471.355 212.04 473.149 216.159 474.666 220.381C482.369 241.812 494.016 262.914 493.556 286.125C493.337 297.211 488.878 312.3 493.678 322.404C495.374 325.979 498.709 328.137 502.745 327.535C504.32 327.3 505.615 325.989 507.132 325.58C513.881 323.762 522.43 327.873 524.978 334.42C527.245 340.249 524.787 352.648 534.486 352.421C537.478 352.352 537.594 351.327 540.023 350.281C537.845 356.212 531.296 358.252 525.794 355.258C520.747 352.513 518.453 347.628 515.179 343.686C511.209 338.909 508.13 341.456 502.903 340.64C499.127 340.05 493.149 336.264 490.62 333.376C488.091 330.489 485.387 325.614 485.34 321.754C486.933 324.726 488.937 328.111 491.484 330.375C493.503 332.169 500.969 337.292 503.384 337.411C506.968 337.588 511.352 335.96 514.83 338.225L518.886 341.036C515.313 334.37 508.675 336.23 502.824 335.44C496.899 334.642 488.775 325.833 486.653 320.446C483.469 312.364 486.384 301.589 486.688 292.989C487.853 260.026 467.325 240.551 458.516 210.719C457.148 206.08 454.78 194.396 461.775 194H461.778Z" fill="#FFF5E8"/>
</g>
<g id="Group 2085661850">
<path id="Vector_2" d="M304.735 275C307.542 282.237 312.05 289.18 319.55 292.15C322.748 293.415 328.77 293.931 331.3 295.719C332.272 296.406 332.486 297.352 333.297 297.947C338.218 301.556 343.649 305.469 349.119 308.005L338.842 309.35C327.219 309.128 315.546 309.165 304.096 307.073C302.563 306.792 292.431 304.531 292.092 304.013C291.334 302.848 295.467 299.688 296.297 298.507C296.844 297.727 297.233 295.637 297.661 295.564C300.044 295.952 301.487 297.928 303.842 298.877C308.031 300.565 319.077 302.285 323.533 301.96C324.436 301.894 325.277 302.021 325.877 301.138C319.828 299.252 312.254 299.574 306.437 297.339C299.695 294.75 297.283 291.87 302.37 285.571C305.216 289.542 308.599 292.625 313.726 292.95L308.443 288.472C305.351 284.036 302.994 281.021 303.689 275.264L304.738 275.003L304.735 275Z" fill="#FFF5E8"/>
</g>
<g id="Group 2085661853">
<path id="Vector_3" d="M315.78 134.27C315.769 141.906 315.325 149.502 313.959 157.011C313.264 160.826 311.195 162.631 313.364 166.53C315.233 169.886 323.264 169.294 324.118 165.587C325.669 158.852 318.925 158.483 318.417 164.903C317.461 164.477 316.832 161.851 316.869 160.993C317.178 153.397 326.33 153.032 329.971 158.908C338.66 172.938 324.276 191.239 308.695 189.157C301.295 188.169 291.829 180.563 290.55 172.967C290.275 171.331 289.696 162.919 289.926 161.502C290.172 159.989 295.402 153.354 296.232 154.345L295.661 164.639C296.467 171.328 298.404 178.663 305.037 181.723C310.812 184.386 323.629 185.377 325.817 177.585C325.085 176.893 320.999 180.14 320.013 180.494C314.102 182.61 304.736 180.512 301.581 174.615C298.983 169.759 297.484 155.566 299.548 150.53C299.966 149.513 306.673 141.327 307.321 142.197C307.048 150.363 304.511 160.245 305.775 168.309C306.234 171.249 309.9 175.471 312.902 175.971C314.091 176.169 318.597 176.203 319.636 175.891C320.492 175.635 325.214 171.41 322.051 172.494C317.854 173.931 314.625 175.905 310.751 171.78C305.656 166.356 308.964 160.314 309.432 154.068C309.628 151.444 309.26 148.754 309.419 146.131C309.509 144.643 309.794 139.821 310.077 138.865C310.246 138.289 313.6 135.044 314.234 134.638C314.81 134.268 315.013 134.117 315.78 134.265V134.27Z" fill="#FFF5E8"/>
<path id="Vector_4" d="M283.031 216.674C282.288 221.034 280.747 225.684 277.508 228.841C273.47 232.78 269.093 230.334 265.082 234.366C267.336 237.047 269.334 234.397 271.937 234.104C273.086 235.351 267.338 239.705 266.3 240.347C261.72 243.166 259.099 243.161 253.863 242.923C253.047 242.886 252.661 242.099 251.876 243.346C253.348 245.309 255.388 245.362 257.674 245.198C258.789 246.139 252.806 249.201 252.151 249.441C247.048 251.315 240.333 250.657 235.444 248.543L234.963 242.551C238.496 243.359 241.3 243.668 244.913 242.707C245.856 242.456 246.279 242.857 246.052 241.499C240.238 242.625 236.762 239.095 231.792 237.264L232.309 235.93C233.411 235.195 234.767 236.54 235.822 236.58C237.095 236.625 238.279 236.067 239.934 236.255C242.148 236.503 244.622 238.215 247.111 237.8L245.874 236.691L236.548 232.529C244.685 227.885 250.822 237.943 258.731 235.156L254.371 234.508C250.544 232.194 247.539 228.968 242.888 228.291C246.384 220.505 261.649 233.578 264.688 227.11C266.723 222.783 259.08 219.358 260.977 225.002L263.485 226.711C261.371 226.801 259.476 226.933 257.682 225.657L258.472 228.294C255.423 226.416 251.768 224.97 248.166 224.598C248.026 223.948 248.3 223.66 248.575 223.16C249.828 220.891 263.052 214.204 265.938 214.066C269.746 213.884 273.919 218.074 276.458 218.238C277.724 218.32 282.642 216.294 283.031 216.679V216.674Z" fill="#FFF5E8"/>
<path id="Vector_5" d="M355.953 162.02C356.254 161.952 356.489 161.73 356.595 161.442C357.541 158.855 362.721 154.49 364.388 157.785L361.862 161.526C360.168 164.034 359.309 167.035 359.563 170.047C359.703 171.722 360.163 173.347 361.095 174.808C361.582 175.569 364.608 178.914 365.194 179.165C365.834 179.44 366.22 179.022 365.974 178.385C365.474 177.096 363.352 175.339 362.607 173.299C361.188 169.41 362.604 163.859 365.208 160.707C367.811 157.555 369.135 161.394 372.316 161.745C372.75 162.321 369.24 165.748 368.862 166.995C367.182 172.562 372.142 177.323 377.649 175.764C378.339 175.569 379.187 174.673 379.172 174.147C379.129 172.932 375.905 174.113 374.811 173.788C370.128 172.398 372.657 164.464 377.924 163.886C380.355 163.619 385.918 165.069 386.854 167.54C388.328 171.439 388.001 176.737 385.953 180.386C385.133 181.844 380.789 186.555 380.237 183.292L379.711 184.708C377.943 188.114 376.333 191.691 373.646 194.492C372.705 195.469 368.196 199.039 367.237 199.192C365.377 199.491 366.119 195.501 365.924 194.275C364.132 183.107 354.499 178.953 349.922 170.131C348.305 167.014 347.163 163.125 348.252 159.597C349.013 157.13 356.413 151.819 358.572 155.138C356.754 156.784 355.028 158.62 354.853 161.093C354.811 161.69 355.369 162.158 355.955 162.02H355.953Z" fill="#FFF5E8"/>
<path id="Vector_6" d="M180.012 270.023C180.279 271.035 183.167 270.589 183.862 270.435C189.108 269.265 191.36 260.211 189.523 255.761C196.621 258.221 196.843 266.081 192.922 271.569C191.016 274.232 183.611 280.47 180.733 282.095C179.983 282.52 179.32 282.814 178.429 282.695C177.414 273.152 169.594 266.316 174.291 256.641C176.735 251.608 185.599 245.911 186.312 241.198C186.642 239.026 185.741 233.575 185.126 231.356C184.975 230.814 185.001 229.755 184.24 229.882C182.718 233.642 185.242 237.634 183.947 241.473C183.442 242.965 180.562 245.388 179.486 246.778C180.205 242.646 180.11 238.088 181.391 234.162C181.619 233.464 181.759 232.577 180.807 233.05C178.947 233.972 177.501 242.152 176.405 244.498C176.193 244.952 173.91 249.172 173.141 248.361C175.054 238.194 178.157 226.238 188.981 222.484C188.241 229.018 194.465 230.585 193.603 237.401C192.879 243.121 188.788 249.959 183.873 253.024C180.43 255.172 176.336 255.333 176.468 260.887C176.521 263.104 180.374 267.49 182.652 266.081C185.398 263.363 179.222 261.315 181.553 258.099C184.008 254.712 187.533 258.884 187.414 262.337C187.242 267.31 185.12 269.82 180.009 270.029L180.012 270.023Z" fill="#FFF5E8"/>
<path id="Vector_7" d="M427.598 150.834C428.122 151.338 428.949 152.266 428.349 153.032C426.668 155.183 412.958 161.178 409.845 162.028C382.855 169.41 354.477 152.596 339.655 130.743C334.792 123.575 330.257 114.766 328.465 106.283C330.405 106.637 334.596 106.626 335.886 108.1C338.344 113.765 340.133 119.76 343.064 125.221C356.75 150.728 388.349 166.679 416.174 154.094C417.937 153.296 423.719 149.476 424.57 149.296C425.273 149.148 427.072 150.327 427.596 150.834H427.598Z" fill="#FFF5E8"/>
<path id="Vector_8" d="M290.422 179.7C290.322 181.819 293.078 184.453 291.485 186.297C287.18 189.264 282.534 191.682 278.335 194.807C256.963 210.715 240.285 227.879 216.297 241.06C208.242 245.486 199.958 250.019 191.118 252.587L194.664 246.754C205.148 241.871 215.777 236.949 225.613 230.83C242.719 220.185 256.646 204.15 272.217 191.859C277.611 187.602 284.249 184.881 288.969 179.85L290.425 179.7H290.422Z" fill="#FFF5E8"/>
<path id="Vector_9" d="M381.822 145.364C378.63 145.813 367.036 140.051 366.748 137.205C366.286 132.627 372.483 128.518 376.185 126.79C380.133 124.949 385.184 123.118 389.433 124.822C391.114 125.496 391.735 126.914 392.964 127.63C397.969 130.553 403.217 133.229 408.183 136.18C409.562 136.999 411.058 138.4 412.464 139.306C413.141 142.064 398.373 146.625 395.77 146.894C389.459 147.547 381.732 142.611 386.027 136.101C387.094 134.481 394.79 132.513 388.468 130.016C382.147 127.52 378.413 134.6 379.428 140.112C379.822 142.26 381.103 143.496 381.825 145.364H381.822Z" fill="#FFF5E8"/>
<path id="Vector_10" d="M279.861 209.807C278.917 209.796 277.958 209.736 277.014 209.86C272.82 210.409 269.345 210.602 265.228 211.81C264.578 212 263.608 212.127 264.02 211.131C264.454 210.084 271.081 204.909 272.316 204.631C275.749 203.86 281.393 205.247 285.146 204.518C285.463 203.181 284.53 203.387 283.589 203.199C280.984 202.681 278.161 203.627 276.171 202.134C275.907 200.874 280.331 198.124 281.444 197.886C284.443 197.246 292.871 203.807 295.717 195.545C295.067 195.009 291.327 197.574 290.18 197.6C289.858 197.608 284.332 196.126 283.941 195.957C281.703 195.003 284.583 193.41 285.841 192.797C295.788 187.941 298.515 193.019 306.679 193.857C307.836 193.976 309.694 192.298 309.979 193.701C310.574 196.604 307.094 197.698 306.002 198.694C305.186 199.439 304.612 201.183 303.632 201.606C302.596 202.055 301.338 201.643 300.468 202.14C299.678 202.591 297.958 206.317 295.55 207.786C292.094 209.897 289.163 208.602 288.283 209.009C287.855 209.207 286.684 211.202 285.545 212.042C283.058 213.884 278.706 215.815 275.611 214.835C273.098 214.037 274.343 211.979 276.01 211.487C277.371 211.086 279.908 212.124 279.863 209.799L279.861 209.807Z" fill="#FFF5E8"/>
<path id="Vector_11" d="M288.311 162.803C287.145 167.439 286.799 171.411 288.612 175.971L288.369 176.814C281.854 181.717 274.954 185.171 268.517 190.278C263.049 194.616 258.562 199.755 253.453 204.268C248.797 208.379 243.662 212.107 238.913 216.131C237.867 215.391 238.358 215.412 238.506 214.691C241.297 200.91 260.882 189.202 270.887 179.971C275.869 175.376 281.936 167.27 286.725 163.587C287.256 163.18 287.396 162.562 288.311 162.8V162.803Z" fill="#FFF5E8"/>
<path id="Vector_12" d="M356.644 133.563C366.19 143.466 376.848 148.317 390.537 149.59C392.503 149.773 396.906 150.174 398.727 149.902C404.855 148.98 410.6 145.128 415.891 142.177L421.42 147.167C420.991 149.165 411.282 152.795 409.105 153.371C396.734 156.653 380.566 154.391 369.504 147.907C354.35 139.024 345.46 125.476 339.557 109.185C340.696 108.424 342.871 109.441 343.489 110.535C345.714 119.219 350.429 127.119 356.642 133.566L356.644 133.563Z" fill="#FFF5E8"/>
<path id="Vector_13" d="M205.894 270.542C204.985 270.642 205.315 268.718 205.354 268.153C205.92 259.706 210.582 253.677 216.731 248.374C218.859 250.335 216.882 252.858 218.058 255.228C220.349 254.451 219.792 250.541 219.067 248.776C218.869 248.292 218.209 248.308 217.907 247.701C217.051 245.978 216.435 243.854 219.057 243.666L224.913 250.472C226.081 247.095 225.561 244.514 223.462 241.753C226.388 237.88 229.268 237.127 231.364 242.184C233.46 247.241 231.628 253.701 227.514 257.03C222.884 260.776 222.458 257.318 218.845 257.307C213.528 257.291 207.455 265.936 205.894 270.542Z" fill="#FFF5E8"/>
<path id="Vector_14" d="M337.387 132.228L342.619 140.987C342.839 143.412 342.389 145.449 344.028 147.502C346.869 151.058 350.077 146.908 353.259 149.893L355.677 152.239C350.132 155.32 344.976 158.633 338.639 155.029C332.876 151.751 340.682 147.827 336.655 143.798C335.222 144.802 333.523 145.74 331.697 145.304C329.889 140.725 331.821 132.484 337.384 132.231L337.387 132.228Z" fill="#FFF5E8"/>
<path id="Vector_15" d="M214.355 245.197C211.823 250.373 206.825 254.159 204.458 259.33C201.051 266.768 201.569 277.722 203.932 285.453C204.365 286.866 205.438 288.1 205.8 289.397C206.582 292.203 202.193 288.586 201.424 287.96C198.924 285.928 195.98 282.903 195.475 279.648C194.355 272.451 198.863 269.645 199.051 263.38C199.156 259.882 196.791 255.51 200.642 252.87C202.528 251.575 205.507 251.401 207.853 250.046C208.792 249.504 213.881 244.727 214.355 245.195V245.197Z" fill="#FFF5E8"/>
<path id="Vector_16" d="M216.991 179.704C211.592 190.674 198.27 196.877 186.877 199.776C187.078 200.69 187.894 200.843 188.703 200.851C196.068 200.922 204.287 194.809 210.117 190.793C210.68 191.419 206.806 194.957 206.169 195.569C201.269 200.288 194.633 204 187.688 204.545C179.877 205.158 178.013 204.201 175.786 196.605C178.907 196.84 181.819 196.418 184.871 195.918C198.045 193.754 205.947 190.37 215.191 180.808C215.738 180.243 215.952 179.466 216.991 179.706V179.704Z" fill="#FFF5E8"/>
<path id="Vector_17" d="M196.928 242.023L197.52 235.227C204.467 233.251 211.09 229.967 217.158 226.075C220.041 224.226 222.707 221.872 225.337 219.842C227.565 218.122 229.866 217.076 231.518 214.648L236.019 217.472C236.444 219.269 222.554 228.355 220.329 229.774C212.929 234.488 205.165 238.929 196.928 242.023Z" fill="#FFF5E8"/>
<path id="Vector_18" d="M221.223 175.472V185.242C221.223 190.757 211.947 199.217 207.737 202.395C199.883 208.324 191.625 212.559 181.411 211.315L180.774 210.895L180.546 206.638C185.084 208.229 188.765 207.209 193.213 205.835C204.933 202.215 214.841 193.576 218.844 181.813C219.383 180.23 219.278 178.487 220.031 176.637C220.356 175.842 219.709 175.21 221.22 175.475L221.223 175.472Z" fill="#FFF5E8"/>
<path id="Vector_19" d="M221.218 192.905C221.469 196.778 221.564 198.157 219.093 201.074C212.841 208.448 199.413 215.6 190.169 218.108C186.686 219.053 177.637 222.19 178.956 215.357C179.418 212.955 184.334 214.683 186.641 214.58C194.677 214.216 207.323 206.422 213.306 201.1C216.16 198.561 218.351 195.412 221.218 192.907V192.905Z" fill="#FFF5E8"/>
<path id="Vector_20" d="M380.76 121.606C381.178 123.408 378.794 122.404 377.454 122.782C375.81 123.244 370.187 126.66 368.852 127.913C367.518 129.165 366.373 132.349 364.18 131.599C363.141 131.242 358.06 116.037 358.577 113.677L380.76 121.606Z" fill="#FFF5E8"/>
<path id="Vector_21" d="M327.941 136.914C327.576 142.34 326.5 148.317 332.724 150.42L331.104 155.929C328.744 155.34 327.312 153.136 325.052 152.214C323.221 151.466 320.94 151.102 318.953 151.178C318.678 149.464 319.447 147.852 319.508 146.179C319.568 144.507 318.908 136.264 319.196 135.833C320.115 134.459 326.046 137.788 327.943 136.914H327.941Z" fill="#FFF5E8"/>
<path id="Vector_22" d="M227.034 259.985C226.175 262.371 223.858 262.706 222.029 264.217C216.442 268.839 213.366 280.509 210.647 287.169C208.94 291.349 208.147 284.615 208.02 282.947C206.965 268.939 213.903 262.64 227.034 259.982V259.985Z" fill="#FFF5E8"/>
<path id="Vector_23" d="M214.277 210.928C215.667 213.879 218.54 217.396 221.938 217.74L222.277 218.773C219.874 219.351 217.692 222.155 215.432 222.76C210.49 224.083 207.044 220.403 204.951 216.4C206.32 215.333 212.948 210.144 214.28 210.928H214.277Z" fill="#FFF5E8"/>
<path id="Vector_24" d="M328.464 114.726C321.178 112.961 313.263 108.593 308.649 102.585C308.242 102.057 307.624 101.914 307.861 101L323.152 104.459L328.464 114.726Z" fill="#FFF5E8"/>
<path id="Vector_25" d="M355.267 113.283C356.203 116.134 356.031 119.03 356.829 122.026C357.818 125.738 359.966 130.351 361.742 133.746C361.19 134.277 359.77 132.602 359.358 132.174C355.88 128.562 347.815 117.304 346.657 112.654C346.443 111.796 345.825 110.369 347.186 110.533C348.645 110.707 354.393 112.38 355.27 113.286L355.267 113.283Z" fill="#FFF5E8"/>
<path id="Vector_26" d="M209.599 226.7C206.127 228.209 200.677 231.499 196.756 230.302C195.104 229.797 193.532 223.459 192.694 221.699L196.407 220.595C198.669 223.752 200.453 226.732 204.845 226.703C202.887 224.613 196.145 220.037 200.865 217.733C201.986 218.962 202.638 220.478 203.775 221.704C205.54 223.607 207.67 224.143 209.05 225.411C209.525 225.847 209.766 225.937 209.599 226.7Z" fill="#FFF5E8"/>
<path id="Vector_27" d="M400.841 166.495C401.829 170.67 394.414 179.219 390.547 178.643C389.509 178.488 390.072 177.642 390.143 177.206C390.772 173.317 392.418 170.442 389.747 166.495H400.841Z" fill="#FFF5E8"/>
<path id="Vector_28" d="M222.798 202.414C224.386 206.261 225.921 210.467 229.135 213.239C225.002 218.705 218.36 212.489 216.487 207.952C217.195 207.228 218.131 206.84 218.857 206.124C219.584 205.408 222.145 201.936 222.798 202.414Z" fill="#FFF5E8"/>
<path id="Vector_29" d="M332.092 130.64C332.996 133.541 328.754 134.413 326.632 134.299C324.198 134.167 319.975 132.12 319.483 129.533C321.685 129.237 323.368 126.111 325.538 126.339C327.052 126.497 329.65 130.759 332.092 130.64Z" fill="#FFF5E8"/>
<path id="Vector_30" d="M331.048 121.14C331.714 124.094 334.346 126.59 335.43 129.174C335.697 129.811 335.948 130.39 335.062 130.577C333.503 130.908 327.795 126.427 327.515 124.897C327.222 123.306 329.246 120.025 331.048 121.14Z" fill="#FFF5E8"/>
<path id="Vector_31" d="M176.321 230.403C176.002 228.643 178.359 221.277 179.807 221.015L183.724 221.678C184.59 222.32 183.959 222.463 183.462 223.021C182.566 224.03 181.084 224.727 180.003 225.9C178.658 227.359 178.026 229.354 176.324 230.403H176.321Z" fill="#FFF5E8"/>
<path id="Vector_32" d="M172.608 252.059L172.373 254.193L169.715 261.031C166.374 257.589 168.211 252.878 172.611 252.059H172.608Z" fill="#FFF5E8"/>
<path id="Vector_33" d="M167.33 257.869L168.385 266.844C166.62 265.708 165.547 263.486 163.107 263.671C162.278 262.733 166.501 256.878 167.333 257.869H167.33Z" fill="#FFF5E8"/>
</g>
<g id="Group 2085661847">
<path id="Vector_34" d="M291.662 226.326C293.309 226.522 293.565 224.046 293.713 222.831C294.125 219.47 293.309 215.943 294.041 212.595C299.078 207.837 307.508 202.838 311.424 197.228C312.31 195.963 312.809 193.849 313.314 193.308C314.323 192.227 319.802 192.597 322.389 191.289C326.625 189.149 334.973 179.312 335.917 174.71C337.23 168.319 334.833 163.161 333.396 157.135C336.831 158.722 338.134 159.745 342.127 159.8C343.61 159.822 345.087 158.561 346.06 160.033C341.731 167.449 346.226 170.591 349.685 175.967C351.245 178.39 352.46 181.159 354.305 183.497C355.653 185.207 357.796 186.642 358.982 188.33C362.701 193.619 362.611 199.744 360.867 205.72C367.785 203.91 376.836 198.93 379.646 192.018C380.087 190.932 379.593 189.625 380.37 188.517C380.856 187.823 384.92 186.327 386.292 185.461C389.471 183.45 390.132 182.573 393.726 180.744C396.387 179.392 399.609 177.019 401.033 174.319C403.031 170.53 402.685 165.634 408.94 166.115C409.339 173.682 400.248 178.948 404.183 186.713C399.503 186.607 393.546 186.871 389.91 190.137C383.258 196.111 384.772 208.222 389.289 215.076C390.954 217.599 393.464 219.013 395.245 221.325C395.362 222.524 392.999 224.883 392.275 226.308C384.167 242.274 394.318 275.086 413.668 278.907C419.764 280.111 420.851 280.74 426.371 282.579C432.616 284.658 437.653 283.517 441.686 278.09C442.597 281.559 440.71 286.82 439.143 290.067C437.449 293.573 434.278 296.648 431.913 299.742C430.829 300.207 430.359 296.77 429.928 295.927C429.12 294.352 427.045 290.394 426.086 289.203C425.375 288.323 424.949 287.943 423.734 288.128C423.644 289.758 423.67 291.187 424.088 292.786C424.804 295.52 427.365 296.019 428.189 298.194C429.164 300.765 429.083 305.074 428.229 307.679C426.958 311.555 421.157 312.958 419.112 318.107C417.55 322.039 418.787 329.817 420.864 333.514C421.361 334.396 425.481 337.545 424.783 338.306C415.163 332.961 405.182 323.68 405.502 311.901C408.38 317.093 413.826 317.772 418.388 314.187C425.412 308.665 423.348 298.035 418.192 291.821C413.639 286.334 404.69 286.331 402.864 278.619C402.082 281.218 402.309 283.979 401.276 286.545C400.029 289.639 396.585 292.722 394.928 296.043C393.433 299.039 392.476 302.368 391.501 305.56C385.423 301.177 381.868 293.797 380.417 286.548C387.132 294.075 397.848 286.455 396.741 277.876C396.065 272.632 391.139 269.271 388.951 265.07C386.852 261.043 385.766 256.221 386.218 251.685C383.85 254.335 384.143 260.01 385.682 263.046C385.602 264.016 382.328 263.218 381.215 263.308C374.315 263.865 369.085 270.782 368.319 277.358C366.794 290.471 373.205 303.819 383.047 312.171C386.244 314.884 391.139 316.926 392.563 320.871C390.259 322.607 378.086 312.12 376.173 310.062C364.558 297.576 359.574 282.83 365.748 266.335C368.842 258.068 373.863 258.684 378.517 253.223C387.265 242.958 381.517 229.6 379.949 218.08C379.321 213.446 379.392 208.317 378.821 203.622L375.906 223.148C374.683 226.027 373.369 228.683 369.841 228.709C372.243 230.514 375.948 228.146 376.818 225.642L378.295 221.052L380.935 238.744C380.285 243.772 379.18 247.727 375.837 251.624C373.618 254.213 370.462 255.117 368.356 257.849C365.423 261.654 362.693 267.133 361.39 271.749C360.605 271.509 360.399 269.017 360.346 268.312C360.169 265.921 360.608 263.286 360.306 260.956C360.224 260.322 359.561 258.187 358.758 258.021C358.277 267.263 357.875 275.963 359.955 285.076C363.036 298.59 375.251 316.424 387.785 322.744C389.881 323.801 393.232 324.459 394.949 325.619C397.468 327.318 400.552 333.22 403.932 334.6C404.175 334.697 404.796 334.737 404.714 334.343C401.572 331.009 395.859 324.272 394.912 319.846C394.072 315.915 394.574 307.497 395.547 303.518C397.249 296.577 402.658 292.207 404.191 285.483L413.71 292.07C417.806 296.244 420.898 301.726 418.721 307.669C417.256 311.663 412.233 313.368 408.964 310.551C408.205 309.896 406.725 306.094 406.831 305.296C407.066 303.549 409.669 306.532 411.051 305.845C414.278 304.236 412.473 295.808 407.592 298.659C407.183 298.899 404.254 301.938 403.964 302.424C402.288 305.23 402.259 312.041 402.597 315.328C403.705 326.068 415.549 338.1 425.586 341.464L426.11 339.366C427.753 340.83 433.105 343.762 435.081 343.871C435.821 343.91 443.631 341.503 444.701 341.038C445.219 340.814 448.25 338.996 447.505 338.301C439.294 341.852 431.474 340.425 425.576 333.551C421.355 328.634 418.488 319.233 425.132 315.135C425.758 314.749 431.654 311.629 432.05 311.489C441.588 308.128 447.605 316.364 445.8 325.236C444.653 330.874 435.354 333.942 433.773 326.681L436.868 327.659C442.465 321.709 433.361 316.358 430.367 322.48C427.019 329.329 437.172 337.384 444.31 332.729C453.123 326.98 450.533 311.46 441.181 307.912C440.65 307.711 437.412 307.883 438.528 306.617C438.75 306.366 441.709 304.635 442.47 303.951C446.244 300.556 450.626 295.742 452.005 290.77C452.996 287.195 452.663 283.216 453.99 279.549C456.461 272.719 460.137 268.975 458.993 260.525C458.551 257.265 454.365 251.09 455.919 248.739C456.902 247.254 459.178 247.598 459.127 245.867C447.486 246.993 454.775 254.811 455.436 260.914C455.819 264.438 455.409 268.378 454.368 271.744C452.185 269.968 452.922 266.359 452.103 263.717C450.229 257.685 442.838 254.914 441.831 247.576C439.793 232.686 454.032 227.161 452.65 216.159C452.312 213.472 450.885 210.547 450.414 207.839C449.077 209.504 450.634 212.36 450.7 214.423C450.996 223.325 443.921 226.458 441.07 233.357C438.9 238.609 437.539 247.341 439.899 252.676C442.053 257.548 449.048 261.347 450.673 266.988L441.95 259.606C438.993 258.475 432.523 254.855 432.188 251.363C431.934 248.713 434.756 241.941 430.605 241.111C431.918 245.793 427.415 249.611 426.995 253.661C426.863 254.951 427.563 255.944 427.354 257.093C427.053 258.753 424.68 260.658 423.818 262.058C421.078 266.512 420.906 274.41 424.786 278.346C423.665 278.629 420.581 276.053 419.749 274.93C418.258 272.917 417.574 266.626 417.957 264.116C418.369 261.416 420.747 259.247 421.466 257.07C422.65 253.484 421.231 249.598 419.146 246.649C420.629 242.086 425.383 240.969 428.607 238.466C440.607 229.156 446.45 208.021 446.411 193.368C450.523 191.249 453.586 186.811 453.319 181.952C454.228 182.821 456.45 187.109 456.448 188.029C456.448 189.128 454.135 191.989 453.594 193.588C450.042 204.042 458.152 218.368 454.127 227.396C451.982 232.213 446.974 235.967 446.974 241.899V250.086L449.207 238.85C450.837 234.321 455.288 231.32 455.961 226.318C456.664 226.384 456.831 227.058 457.045 227.605C460.227 235.745 463.435 248.002 463.905 256.663C464.376 265.323 461.831 281.932 458.956 290.323C457.669 294.075 454.45 297.399 452.793 301.066L453.047 301.845L456.754 297.626C457.928 297.404 457.51 298.152 457.555 298.947C457.682 301.275 456.564 306.472 455.687 308.707C454.809 310.942 452.328 313.254 451.736 314.794C451.387 315.703 452.46 315.856 452.777 315.574C453.239 315.159 454.006 312.482 455.951 312.408C456.331 318.345 453.609 323.867 451.736 329.31C454.521 327.796 454.788 323.976 457.008 321.917C457.402 325.265 458.538 329.638 457.05 332.782C456.582 333.77 450.221 340.967 450.681 341.458C452.217 339.522 454.484 338.378 456.25 336.732C457.172 335.87 457.854 333.64 459.146 334.314C459.611 334.621 461.131 338.602 461.141 339.186C461.157 340.153 459.944 340.407 460.19 341.458L462.304 341.152L465.462 346.489C466.014 348.288 463.271 346.241 462.83 347.004C468.044 350.471 473.435 359.43 464.939 362.32C463.16 362.926 457.558 364.276 457.547 361.538C464.212 359.533 461.564 350.354 456.323 347.702C445.56 342.256 438.596 353.871 443.808 362.854C443.921 363.211 443.306 363.237 443.025 363.111C440.882 362.133 437.209 358.534 434.656 357.213C429.701 354.65 421.966 354.114 417.97 351.712C415.562 350.265 412.283 347.06 409.638 345.255C380.608 325.426 357.545 310.282 351.485 272.407C349.926 262.668 350.956 251.172 357.975 243.759L363.755 248.517C372.204 252.789 377.457 241.486 372.973 238.247C368.06 234.701 362.886 244.744 370.898 242.691C369.823 248.171 363.499 245.864 361.535 241.753C358.792 236.009 359.891 230.387 363.073 225.09C366.44 219.48 374.011 217.15 374.595 209.942C368.084 216.637 360.864 219.943 358.076 229.602C357.518 231.531 357.51 233.639 357.021 235.415C355.737 240.086 352.439 244.623 349.775 248.499C349.688 247.014 349.878 245.487 349.77 244.002C349.712 243.214 350.18 242.475 348.982 242.694L342.904 249.299C342.014 251.378 347.413 247.859 347.389 246.905L348.718 247.185C347.767 252.943 341.969 256.079 339.635 261.344C332.785 276.801 341.9 291.789 352.931 302.117C353.523 302.672 359.59 306.91 358.747 307.653C357.825 307.806 357.101 307.531 356.255 307.243C352.41 305.925 338.345 295.835 336.025 292.609C323.998 275.887 328.441 254.708 342.621 241.093C345.084 238.728 348.967 237.322 349.738 233.417C349.87 232.744 350.198 231.32 348.982 231.605C347.719 233 344.21 237.835 342.212 237.338C340.534 236.924 337.783 229.843 338.102 228.236C352.954 225.029 356.461 207.985 350.758 195.485C350.01 193.844 348.803 192.605 348.031 190.819C346.282 186.774 345.47 182.087 345.01 177.727C339.625 179.769 332.185 186.066 330.983 191.957C330.544 194.1 331.104 196.137 330.338 198.177C329.133 201.379 323.346 205.218 321.02 208.405C312.968 219.435 314.59 241.185 325.502 249.785C328.118 251.846 329.828 250.528 329.13 255.075C328.969 256.124 328.216 256.951 328.1 258.008L319.648 250.887C316.512 247.957 314.397 245.484 312.693 241.468L310.145 234.242V242.955C310.145 243.827 314.321 251.053 315.211 252.153C319.125 256.985 327.994 260.729 322.74 268.225L317.545 272.795L324.936 270.684C325.679 276.185 326.406 281.734 328.541 286.888C328.961 287.903 332.632 294.152 332.331 294.45C330.306 294.041 328.594 292.68 326.662 291.937C322.6 290.376 319.596 290.202 316.001 287.279C310.856 283.097 308.454 275.892 308.544 269.392C308.586 266.415 310.526 263.574 310.676 260.65C313.454 261.514 316.105 264.417 319.115 261.971C315.727 259.492 314.041 260.068 311.641 256.248C307 248.861 301.678 236.955 302.23 228.173C302.621 221.943 305.951 215.15 309.614 210.207C308.224 209.826 305.645 212.962 304.759 214.331C300.542 220.849 299.141 230.493 300.235 238.075C301.977 250.168 314.419 257.249 302.764 270.433C301.57 271.783 295.589 275.939 296.942 277.549L299.855 275.443C302.27 274.92 300.415 281.765 299.992 282.981C297.222 290.915 288.116 298.308 279.506 298.157C281.472 300.368 286.469 300.678 288.988 299.446C289.239 299.322 294.062 294.535 293.232 297.348C292.87 298.577 288.391 303.433 287.178 304.503C285.457 306.023 283.496 307.159 281.62 308.453L284.53 307.674C286.934 309.605 281.39 312.451 279.754 313.983C277.772 315.838 270.888 322.359 270 324.303C269.897 324.53 269.865 325.17 270.256 325.085L273.436 321.923C274.247 321.796 274.35 321.902 274.228 322.713C274.004 324.219 271.858 328.039 271.2 330.256C270.359 333.091 269.686 336.327 269.091 339.239C268.171 343.739 268.8 348.114 266.21 352.204C263.848 355.932 256.337 358.849 252.556 362.32C247.873 366.617 244.313 375.243 236.715 373.948C243.317 368.957 243.684 358.616 250.724 354.151C252.59 352.967 255.328 352.148 257.312 350.965C257.439 349.953 256.358 350.693 255.83 350.801C250.341 351.913 247.521 353.218 244.115 357.837C242.648 350.177 241.773 341.672 245.7 334.6C248.2 337.247 246.72 340.798 250.978 342.24C262.915 346.283 269.397 333.548 264.807 323.674C264.287 322.557 262.751 319.936 261.551 319.796L261.546 319.022C264.313 317.349 267.63 315.402 269.945 313.154C270.507 312.607 271.29 312.395 271.047 311.354C267.783 313.309 263.985 316.52 260.079 317.059C257.664 317.391 254.178 315.574 251.321 315.616C241.43 315.761 234.826 323.981 232.749 333.012L226.16 311.082L227.408 310.34C233.906 315.595 245.922 312.696 252.046 307.933C254.334 306.152 258.044 300.345 259.125 299.695C260.338 298.965 262.717 299.032 264.546 298.247C266.107 297.576 267.27 296.408 268.679 295.512C269.191 295.914 268.985 297.24 268.932 297.88C268.7 300.678 264.839 308.781 262.635 310.599C261.702 311.368 260.6 311.703 259.435 311.891C259.427 312.921 261.609 312.377 262.199 312.274C270.592 310.786 274.165 301.645 272.151 293.967C273.837 293.198 275.473 294.088 277.069 293.911C277.696 293.842 282.912 292.725 283.198 292.598C284.376 292.075 289.115 286.265 289.754 284.894C292.212 279.609 287.957 274.46 292.711 270.949C292.03 270.063 289.318 273.049 289.125 273.699C288.71 275.091 289.212 276.867 289.009 278.339C288.179 284.4 286.424 287.369 280.447 289.322C270.185 292.672 278.621 286.711 280.074 283.139C281.533 279.551 280.433 276.013 282.447 272.307C286.414 265.006 297.677 263.654 299.331 257.5C300.415 253.468 297.973 247.751 295.359 244.808C295.206 247.286 297.376 249.481 297.785 251.659C298.462 255.252 295.166 262.105 291.131 262.763C291.11 261.535 292.172 261.297 292.215 259.891C292.296 257.215 289.804 254.174 289.585 251.339C289.498 250.195 290.724 242.187 289.804 242.163C286.258 248.52 285.597 255.638 286.369 262.771L284.802 262.763C283.946 258.401 281.004 253.429 276.337 252.737C277.045 254.988 279.434 256.219 280.301 258.539C280.795 259.862 282.648 269.057 282.143 269.633C280.032 269.487 279.741 266.674 278.613 265.012C275.182 259.963 270.706 256.372 264.154 257.722C254.81 259.648 251.961 274.003 261.017 277.818C269.585 281.43 272.431 268.79 267.027 268.201C263.451 267.812 261.747 271.163 264.186 273.858C260.611 274.439 258.628 272.994 258.364 269.363C257.875 262.597 265.674 258.185 271.427 261.606C273.15 262.631 278.121 267.527 278.42 269.406C279.228 274.515 278.195 282.875 275.19 287.242C273.745 289.346 264.63 296.981 262.217 297.512C261.298 297.716 260.359 297.655 259.435 297.629C264.255 281.483 247.669 266.61 231.842 270.84C229.387 271.495 228.269 272.925 226.152 273.86C225.922 272.867 226.715 272.608 227.204 272.013C231.966 266.209 236.221 262.52 244.371 263.308C247.965 263.656 250.053 265.128 252.561 267.527C248.438 257.321 235.029 260.219 228.504 266.446C220.896 273.707 215.632 289.132 216.092 299.504C216.364 305.682 218.415 311.616 219.649 317.603C221.438 326.293 222.696 334.782 226.158 343.054C227.151 343.176 226.525 342.011 226.44 341.453C225.386 334.507 223.578 327.268 222.32 320.216C220.016 307.307 216.11 292.714 223.613 280.571C233.14 265.149 257.836 273.435 257.03 292.096C256.599 302.057 244.03 311.521 234.326 310.324C232.315 310.076 227.508 307.243 226.456 305.518C224.876 302.923 225.328 297.359 225.761 294.342C226.388 289.977 231.271 283.483 235.632 282.555C243.557 280.867 249.12 287.002 246.726 294.704C245.78 297.75 241.351 300.368 238.539 298.72C235.383 296.873 238.882 295.998 239.39 295.158C241.134 292.262 239.006 289.195 235.761 289.813C229.67 296.519 233.993 304.781 243.079 302.147C256.639 298.212 251.361 276.135 236.044 279.269C234.443 279.596 229.601 282.463 228.259 283.633C223.304 287.958 222.069 294.759 222.431 301.09C222.894 309.135 230.632 341.03 234.675 347.477C234.908 347.847 235.161 348.357 235.653 348.341C235.367 342.782 234.413 336.28 236.456 330.916C240.278 320.887 253.518 313.848 261.012 324.314C266.713 332.274 258.811 343.76 250.521 336.364C250.246 333.136 251.705 330.906 255.206 331.44C253.882 325.392 247.918 327.815 244.643 331.183C237.12 338.919 240.547 349.483 241.462 358.907C238.438 355.174 232.508 350.502 227.476 350.45C224.902 350.423 222.809 352.391 220.354 352.555L217.569 336.055C210.946 312.604 205.212 287.409 223.235 267.524C227.442 262.882 233.663 259.775 235.198 253.342C240.378 253.624 245.825 254.443 251.007 253.563C255.177 252.855 266.604 245.402 270.005 242.451C273.05 239.809 285.055 226.564 285.727 223.309C286.62 218.981 283.718 214.664 289.778 213.139C290.304 213.256 291.657 217.198 291.657 217.62V226.334L291.662 226.326ZM289.022 233.198C287.817 232.939 287.841 233.779 287.421 234.495C282.273 243.278 279.939 242.979 273.695 249.294C273.137 249.857 272.45 250.205 272.651 251.151C281.044 247.867 287.677 242.588 289.022 233.198ZM270.529 283.372C270.071 282.883 267.468 284.164 267.096 284.952C266.816 285.541 266.773 286.212 266.779 286.857C266.784 287.338 266.678 288.056 267.122 288.371C267.291 288.49 267.516 288.537 267.717 288.484C267.862 288.445 267.997 288.357 268.087 288.236C268.258 288.006 268.266 287.707 268.385 287.454C268.539 287.129 268.753 286.836 268.977 286.555C269.448 285.974 270.011 285.467 270.439 284.851C270.758 284.392 270.959 283.834 270.529 283.372ZM426.908 347.274C424.783 345.268 421.408 344.529 418.805 342.967C418.266 342.645 414.03 338.906 413.705 339.355C413.163 341.271 414.693 342.079 416.162 342.967C419.143 344.766 423.567 346.312 426.905 347.271L426.908 347.274Z" fill="#FFF5E8"/>
<path id="Vector_35" d="M416.861 163.475C416.842 164.834 415.761 165.719 415.418 167.045C410.978 184.271 434.181 197.041 418.388 212.769L408.941 217.869C414.887 217.591 422.181 214.944 424.884 209.253C430.027 198.423 422.474 189.786 420.568 179.318C423.013 181.368 425.317 184.744 426.805 187.603C431.271 196.193 432.455 203.281 428.584 212.426C421.98 228.025 390.928 232.464 401.787 255.925C404.419 261.614 407.939 262.895 413.113 265.728L415.008 274.925C406.195 272.476 401.089 268.079 397.392 259.788C393.653 251.402 390.962 232.331 398.362 225.52C401.853 222.307 403.949 222.682 408.412 223.161C407.899 224.368 406.483 224.402 405.547 225.311C403.986 226.828 399.57 232.667 399.017 234.63C398.877 235.127 398.502 236.498 399.424 236.358L402.577 230.791L414.749 221.05C411.784 220.693 408.999 221.792 406.039 221.567C399.678 221.081 391.042 214.606 389.736 208.291C388.732 203.44 389.76 195.781 394.186 192.824C400.476 188.62 414.157 194.555 410.568 202.864C407.765 209.35 396.419 207.144 402.413 201.551L404.712 202.558L404.77 200.285C401.414 197.989 396.837 199.693 396.731 203.905C396.718 204.394 398.465 207.176 398.89 207.593C406.668 215.253 419.015 207.506 415.968 195.802C414.358 189.616 411.842 189.664 409.234 185.635C405.069 179.204 414.382 171.278 413.179 164.012L416.866 163.478L416.861 163.475Z" fill="#FFF5E8"/>
<path id="Vector_36" d="M431.622 155.051C431.64 157.543 434.676 157.495 434.288 159.754C425.422 163.078 424.085 179.007 433.487 182.508C436.603 183.668 438.537 183.922 441.347 181.871C444.51 179.562 441.825 179.541 441.178 178.384C440.044 176.349 441.748 171.673 438.767 171.377C435.152 171.017 438.812 177.081 436.096 178.767C427.734 176.798 430.66 164.074 437.729 162.386C438.305 162.446 441.011 165.556 441.706 166.373C443.461 168.439 447.911 173.95 448.852 176.127C450.654 180.297 449.851 185.568 446.965 189.076C445.874 190.403 441.965 192.881 441.785 193.401C441.154 195.23 442.488 199.206 442.227 201.772C441.045 213.286 437.375 225.043 428.767 233.205C425.239 236.55 420.52 238.671 417.391 242.428C416.904 243.01 416.875 244.18 416.344 244.55C414.97 245.506 411.918 244.156 411.188 247.322C410.366 250.883 412.827 249.551 414.745 250.891C418.109 253.235 415.615 259.914 413.95 262.78C404.838 260.067 400.876 252.902 402.118 243.535C403.701 231.598 418.884 229.197 425.588 221.577C437.417 208.136 436.709 197.135 426.812 182.838C424.029 178.817 419.936 175.921 419.486 170.624C419.111 166.196 420.033 162.674 423.469 159.773C424.47 158.927 430.834 154.475 431.619 155.051H431.622ZM423.955 230.246C425.192 229.16 427.848 227.141 427.169 225.27C421.751 232.563 409.706 233.305 407.169 242.777C405.969 247.263 405.966 252.268 409.206 255.9C409.246 253.087 407.872 249.998 407.885 247.189C407.932 236.55 417.639 235.797 423.955 230.246Z" fill="#FFF5E8"/>
<path id="Vector_37" d="M339.214 222.63L340.265 218.413C330.054 216.709 332.197 230.955 335.836 236.834C336.88 238.519 339.34 238.979 337.369 241.127C334.766 243.962 333.548 242.25 331.544 240.068C325.138 233.082 326.082 218.83 334.449 213.908C340.384 210.415 344.821 212.119 343.96 202.83C343.807 201.179 343.328 199.004 342.115 197.81L342.11 206.777C338.738 209.668 334.33 210.246 330.754 213.382C324.615 218.77 323.003 232.818 327.15 239.708C328.133 241.341 332.3 245.074 332.628 245.883C333.566 248.197 331.729 249.138 329.507 247.915C319.808 242.58 316.735 225.296 320.989 215.763C322.023 213.446 330.789 201.472 332.615 201.48C333.598 201.485 335.125 204.016 337.102 203.081C331.486 197.318 334.248 189.611 339.214 184.486C340.627 183.025 343.817 179.91 343.976 183.265C344.076 185.368 343.553 187.479 344.216 189.899C345.096 193.12 348.976 196.283 349.655 200.307C350.929 207.842 349.24 222.424 339.216 222.625L339.214 222.63Z" fill="#FFF5E8"/>
<path id="Vector_38" d="M213.785 389.756C218.064 392.668 220.936 395.046 226.185 396.639C240.868 401.093 257.147 399.603 269.729 390.591C270.73 390.813 272.075 400.433 272.12 401.957C272.398 411.337 264.998 414.558 256.798 414.89C258.442 400.676 241.848 397.167 234.348 407.482C230.712 399.339 225.125 396.985 217.009 401.247L210.844 406.433C210.656 401.157 210.709 395.751 203.976 396.139L212.152 388.683C212.818 388.85 213.254 389.394 213.788 389.759L213.785 389.756Z" fill="#FFF5E8"/>
<path id="Vector_39" d="M455.072 402.904C452.868 404.831 450.698 409.322 450.421 412.244C448.431 406.952 446.863 402.159 441.171 399.84C434.966 397.311 432.088 401.961 429.144 406.276C428.822 406.749 429.226 407.251 427.968 406.963C428.507 400.241 426.142 399.496 420.302 399.039C419.728 398.994 418.536 399.351 418.988 398.26C419.401 397.258 421.383 396.386 421.967 395.689C423.158 394.267 423.92 392.558 425.09 391.123C432.934 395.979 440.709 397.596 449.889 397.692C459.91 397.795 470.849 395.911 479.443 390.603C483.549 399.367 481.393 411.6 470.201 412.553C469.562 408.426 469.58 406.199 465.968 403.568C462.363 400.939 458.66 399.768 455.069 402.907L455.072 402.904Z" fill="#FFF5E8"/>
<path id="Vector_40" d="M432.191 307.137C436.53 297.116 445.872 289.911 443.647 277.979C443.29 276.061 442.196 272.658 440.872 271.25C439.139 269.408 434.205 268.248 432.331 270.304C429.493 273.414 434.152 273.416 436.345 272.872C438.742 279.221 431.261 281.456 427.22 276.978C424.305 273.747 424.395 269.649 425.983 265.815C429.02 258.491 436.166 258.771 442.175 262.555C454.429 270.27 451.94 288.595 444.025 298.643C440.912 302.596 436.337 304.524 432.188 307.14L432.191 307.137Z" fill="#FFF5E8"/>
<path id="Vector_41" d="M391.342 283.731C387.877 286.658 382.09 285.231 381.49 280.515L385.168 278.869L382.718 275.559C370.308 279.485 380.913 300.77 386.524 307.1C388.45 309.275 392.843 310.759 391.236 314.538C379.341 308.878 370.324 294.735 370.866 281.501C371.157 274.417 376.611 264.824 384.854 265.989C389.251 266.612 394.51 276.074 393.506 280.354C393.363 280.956 391.783 283.356 391.342 283.731Z" fill="#FFF5E8"/>
<path id="Vector_42" d="M267.885 370.523C271.476 379.998 254.471 382.727 248.07 383.19C238.384 383.887 226.543 381.924 218.836 375.969L219.82 371.052C221.405 371.102 221.846 372.817 223.115 373.826C231.151 380.207 253.924 377.351 262.964 373.258C264.796 372.428 266.112 371.223 267.882 370.526L267.885 370.523Z" fill="#FFF5E8"/>
<path id="Vector_43" d="M454.381 359.962L454.331 357.909C453.224 357.436 452.703 357.222 452.003 358.382C449.994 362.866 458.091 366.948 461.474 366.79C463.123 366.713 468.398 364.549 469.717 363.408C470.414 362.805 471.411 361.051 471.556 361.011C472.629 360.713 473.158 363.833 474.059 364.346C476.149 369.358 462.473 373.051 459.122 372.428C450.174 370.763 439.537 355.468 448.831 349.397C453.747 346.186 458.75 352.234 457.42 357.455C457.127 358.602 455.739 360.414 454.384 359.965L454.381 359.962Z" fill="#FFF5E8"/>
<path id="Vector_44" d="M477.616 368.933C477.281 371.332 478.57 374.915 476.546 376.577C475.106 377.761 469.559 379.819 467.614 380.323C458.731 382.627 444.255 382.974 435.246 381.457C433.702 381.198 429.675 380.413 428.525 379.724C427.524 379.124 425.248 375.882 427.178 375.782C430.69 375.599 436.916 377.206 440.883 377.407C449.07 377.821 460.293 377.325 468.097 374.994C468.887 374.759 474.022 372.643 474.416 372.334C475.917 371.161 475.23 368.326 477.616 368.931V368.933Z" fill="#FFF5E8"/>
<path id="Vector_45" d="M228.246 364.223C228.283 364.239 228.305 364.263 228.307 364.295C228.315 364.374 228.26 364.442 228.204 364.498C227.755 364.96 227.155 365.24 226.6 365.568C226.473 365.642 226.185 365.808 226.182 365.983C226.18 366.115 226.418 366.242 226.521 366.321C226.769 366.511 227.031 366.683 227.306 366.834C228.212 367.33 229.301 367.563 230.292 367.185C231.079 366.884 231.698 366.226 231.975 365.431C232.253 364.635 232.16 363.711 231.698 362.981C231.071 361.993 229.932 361.481 228.825 361.248C226.685 360.799 225.173 360.741 223.49 362.308C222.406 363.314 222.414 364.609 221.404 365.232C220.559 358.371 218.867 353.187 227.945 354.204C234.732 354.965 240.02 361.621 238.595 368.435C237.477 373.78 233.944 374.308 229.044 373.698C228.088 373.579 227.142 373.32 226.28 372.881C225.255 372.361 224.348 371.584 223.775 370.58C223.291 369.732 223.061 368.733 223.223 367.764C223.384 366.794 223.944 365.925 224.732 365.33C225.199 364.976 225.736 364.717 226.293 364.535C226.505 364.466 227.937 364.078 228.249 364.221L228.246 364.223Z" fill="#FFF5E8"/>
<path id="Vector_46" d="M221.245 402.85C223.996 402.226 226.728 402.554 228.499 404.882C229.834 406.633 232.669 415.03 230.938 416.237C229.794 417.038 214.125 415.228 213.166 413.851C213.576 410.118 217.445 403.711 221.242 402.85H221.245Z" fill="#FFF5E8"/>
<path id="Vector_47" d="M236.453 416.473C236.073 416.367 235.708 415.77 235.74 415.26C235.808 414.148 238.533 407.128 239.336 406.298C242.923 402.586 250.793 404.644 252.674 409.233C253.747 411.849 254.817 416.473 250.716 416.473C247.682 416.473 238.602 417.075 236.451 416.473H236.453Z" fill="#FFF5E8"/>
<path id="Vector_48" d="M447.509 415.943C445.088 416.369 442.551 415.573 440.321 415.465C439.451 415.423 438.637 415.956 437.792 415.89C435.598 415.719 432.662 415.193 430.329 414.884C429.568 414.783 429.436 415.198 429.565 414.126C429.861 411.655 430.931 409.362 432.287 407.33C435.218 402.931 437.372 401.974 441.975 404.839C445.456 407.002 447.512 411.888 447.509 415.943Z" fill="#FFF5E8"/>
<path id="Vector_49" d="M267.354 355.203C268.388 355.948 266.815 364.445 266.268 365.993C264.244 371.732 250 374.057 244.643 373.682C245.618 372.273 247.354 371.734 248.628 370.54C254.373 365.161 260.528 361.412 265.785 356.001C266.287 355.485 266.474 355.002 267.354 355.203Z" fill="#FFF5E8"/>
<path id="Vector_50" d="M451.729 372.641C451.872 373.51 451.018 373.127 450.424 373.161C444.922 373.478 437.863 370.363 432.882 367.977C427.932 365.607 421.465 363.111 421.095 356.791C422.52 355.237 442.504 366.31 445.025 367.983C447.448 369.589 449.076 371.89 451.729 372.641Z" fill="#FFF5E8"/>
<path id="Vector_51" d="M346.078 256.964C344.865 266.706 345.56 276.571 348.572 285.898C348.995 287.206 352.304 294.004 351.889 294.461C350.745 294.728 350.718 293.824 350.195 293.256C342.824 285.246 338.171 274.085 341.474 263.187C341.712 262.399 344.992 255.704 346.078 256.967V256.964Z" fill="#FFF5E8"/>
<path id="Vector_52" d="M425.323 413.566C425.35 413.751 425.963 413.936 425.852 414.353C425.347 414.718 414.845 412.612 414.213 411.994C411.748 409.584 418.27 399.51 423.214 401.943C423.666 402.165 425.323 404.876 425.323 405.114C425.323 407.658 424.998 411.198 425.323 413.566Z" fill="#FFF5E8"/>
<path id="Vector_53" d="M208.713 413.304C208.295 413.748 197.846 410.633 197.188 409.515C195.652 406.902 203.94 396.357 207.095 400.933C208.01 402.262 209.405 412.572 208.715 413.306L208.713 413.304Z" fill="#FFF5E8"/>
<path id="Vector_54" d="M454.114 414.888C453.9 414.893 453.625 415.929 452.809 414.629C453.979 411.231 455.895 404.747 460.464 404.811C465.269 404.877 470.48 414.888 464.151 414.888C460.808 414.888 457.454 414.822 454.114 414.888Z" fill="#FFF5E8"/>
<path id="Vector_55" d="M237.245 385.838C237.514 386.871 236.822 386.858 236.36 387.323C234.734 388.959 230.136 393.02 227.948 393.226C226.59 393.355 218.749 390.259 218.767 389.268L226.632 383.947L237.245 385.836V385.838Z" fill="#FFF5E8"/>
<path id="Vector_56" d="M259.963 383.725C260.875 384.732 254.752 392.37 253.497 393.366C249.99 396.146 246.145 395.546 242.006 395.871C241.356 395.247 245.912 392.632 246.668 391.823C248.409 389.96 249.136 387.915 249.892 385.537L259.961 383.725H259.963Z" fill="#FFF5E8"/>
<path id="Vector_57" d="M452.264 385.838C452.418 386.604 452.264 386.81 451.894 387.383C451.041 388.718 443.964 393.352 442.36 393.661C441.414 393.843 434.212 392.084 433.776 391.637C432.878 390.715 434.12 390.749 434.527 390.541C435.639 389.973 437.021 389.693 438.176 388.916C439.331 388.139 440.639 386.208 441.543 385.943C444.466 385.085 449.027 386.778 452.264 385.838Z" fill="#FFF5E8"/>
<path id="Vector_58" d="M465.992 384.783C463.381 392.575 455.601 394.939 448.033 394.281C449.037 392.82 450.834 392.535 452.272 391.394C454.203 389.859 455.004 387.922 456.487 386.101L465.992 384.783Z" fill="#FFF5E8"/>
<path id="Vector_59" d="M247.282 385.841C245.52 391.162 238.516 398.024 232.496 394.544C232.311 393.691 236.088 391.596 236.994 390.602C238.215 389.265 238.878 387.569 239.88 386.095L247.282 385.841Z" fill="#FFF5E8"/>
<path id="Vector_60" d="M476.035 381.088C476.889 383.492 474.669 389.231 472.724 390.446C472.198 390.773 464.732 392.998 464.42 392.702C464.875 390.607 467.201 389.645 468.155 387.727C468.752 386.525 468.472 385.212 469.383 384.203L476.035 381.088Z" fill="#FFF5E8"/>
<path id="Vector_61" d="M268.942 380.56C268.451 386.629 264.032 392.048 257.851 392.7C260.021 389.585 261.675 386.637 262.56 382.888L268.942 380.56Z" fill="#FFF5E8"/>
<path id="Vector_62" d="M439.58 372.641C439.583 373.563 437.263 373.225 436.658 373.185C433.399 372.963 430.003 372.57 426.766 372.113L424.794 366.3L439.58 372.641Z" fill="#FFF5E8"/>
<path id="Vector_63" d="M436.945 385.841C435.832 387.907 430.991 390.597 428.874 389.974C426.715 389.339 428.012 385.559 427.439 383.725L436.945 385.841Z" fill="#FFF5E8"/>
<path id="Vector_64" d="M224.04 383.719C222.457 383.772 215.837 388.113 215.081 385.515L217.531 379.991C218.556 379.666 225.033 382.651 224.037 383.716L224.04 383.719Z" fill="#FFF5E8"/>
<path id="Vector_65" d="M476.043 389.005C476.119 387.621 477.356 387.185 477.8 385.75C478.292 384.17 478.08 382.899 478.149 381.341C478.186 380.529 477.649 379.251 478.934 379.502C481.135 383.227 479.542 386.95 476.04 389.003L476.043 389.005Z" fill="#FFF5E8"/>
</g>
<g id="Group 2085661849">
<path id="Vector_66" d="M205.75 301.917C202.288 305.045 196.13 304.964 191.73 304.578C185.575 304.036 170.427 297.304 165.594 300.065C165.34 300.21 164.917 300.736 165.071 300.858C168.522 301.41 172.341 302.094 175.634 303.244C179.912 304.736 186.643 309.418 191.181 308.768C192.409 308.594 193.485 307.431 194.915 307.725C196.178 309.64 192.045 310.874 190.459 311.191C178.173 313.653 172.124 305.381 160.639 306.728C157.354 307.114 154.14 308.499 152.394 311.421C153.889 311.231 154.859 310.29 156.413 309.899C164.318 307.912 171.093 311.944 178.575 313.505L178.81 315.12C174.759 315.101 170.19 318.1 166.294 318.116C164.5 318.124 163.057 316.673 160.581 316.663C155.702 316.642 152.539 319.87 152.079 324.629C151.989 325.556 151.648 326.05 152.658 326.74C153.609 320.874 158.913 315.701 164.542 320.148C161.773 323.471 161.529 327.318 161.648 331.48C160.406 334.476 143.678 340.936 139.711 340.997C141.107 339.491 142.875 338.37 144.207 336.78C144.558 336.362 145.591 335.72 144.732 335.195C135.671 342.886 118.686 343.454 117 328.853C121.545 332.515 127.246 334.177 133.102 333.601C139.984 332.925 143.752 327.68 147.103 322.248C145.124 321.038 144.6 324.634 143.416 325.958C136.722 333.456 114.423 332.259 118.839 318.821C123.646 326.264 130.208 327.16 137.766 322.951C150.105 316.079 144.563 294.749 129.672 297.687C130.488 296.95 132.256 294.112 132.965 293.817C138.919 291.336 150.887 298.171 152.394 304.557C154.259 303.83 153.091 301.925 152.402 300.58C149.373 294.683 141.651 289.964 134.954 290.82C135.953 288.96 140.668 283.555 142.6 283.47C143.786 283.417 148.578 285.56 149.711 286.371L153.438 290.823C153.226 285.145 148.66 281.953 143.406 281.311C146.545 278.323 147.425 276.175 151.807 278.466C156.751 281.052 159.447 286.535 160.834 291.645C161.067 292.495 160.272 293.204 161.894 292.934C163.562 284.627 158.406 277.573 150.805 274.706L153.987 270.997C160.541 271.639 164.389 277.309 166.899 282.915L168.757 290.82C171.115 281.848 166.582 270.886 157.14 268.637C159.241 260.867 166.876 267.348 169.392 271.446C170.792 273.726 173.488 281.193 173.916 283.819C174.275 286.02 173.892 287.666 173.522 289.769C176.899 287.782 180.573 286.16 183.831 283.972C185.168 283.074 187.938 279.961 189.032 280.292C189.283 280.368 191.677 283.391 192.589 284.168C195.882 286.971 200.723 289.999 204.41 292.44C205.578 293.214 206.704 292.345 206.27 294.522H183.818C183.419 294.522 182.285 295.399 181.44 295.056C181.418 295.566 181.955 295.78 182.309 296.028C183.21 296.659 197.238 301.915 198.081 301.915H205.742L205.75 301.917Z" fill="#FFF5E8"/>
<path id="Vector_67" d="M161.906 371.103C153.336 362.093 141.034 365.7 141.832 379.024L137.887 372.149C136.885 371.039 133.286 368.249 131.93 368.027C128.265 367.43 121.563 371.428 120.699 375.325C119.951 375.441 119.687 373.88 119.687 373.444C119.687 371.708 120.728 364.548 121.256 362.944C121.433 362.413 121.407 361.948 122.017 361.62C123.537 362.141 125.432 363.216 126.92 363.567C137.179 365.988 154.227 365.29 162.686 358.413C168.28 353.863 172.26 347.947 175.376 341.538C182.385 346.785 183.177 354.841 177.501 361.488C168.45 352.999 158.949 359.356 161.904 371.105L161.906 371.103Z" fill="#FFF5E8"/>
<path id="Vector_68" d="M120.703 341C127.338 343.774 134.342 343.455 141.413 342.429C152.988 340.752 160.444 336.72 167.981 327.805C171.561 333.224 168.689 336.139 164.553 339.684C155.864 347.138 143.808 349.55 132.56 348.947C126.865 348.641 119.59 348.636 120.703 341.003V341Z" fill="#FFF5E8"/>
<path id="Vector_69" d="M129.541 308.397C129.961 308.737 130.834 311.073 130.775 311.689C130.664 312.901 129.343 312.788 128.963 313.678C127.528 317.036 133.117 317.636 134.473 315.813C139.208 309.44 130.424 302.262 123.873 305.607C126.481 301.274 127.321 299.012 132.99 299.931C139.51 300.986 143.524 308.584 141.684 314.709C139.314 322.593 128.595 326.334 122.805 319.618C118.437 314.55 120.234 307.868 127.313 307.834C127.855 307.831 129.158 308.088 129.541 308.397Z" fill="#FFF5E8"/>
<path id="Vector_70" d="M144.474 383.254C144.046 375.803 147.362 365.526 156.654 370.284C158.213 371.082 163.689 374.784 161.908 376.652C161.387 377.198 152.938 381.339 151.72 381.783C150.777 382.123 144.854 383.637 144.476 383.257L144.474 383.254Z" fill="#FFF5E8"/>
<path id="Vector_71" d="M130.08 371.196C134.779 370.43 139.084 378.956 140.012 382.713C140.162 383.329 140.466 383.614 139.734 384.063C138.022 385.109 123.349 382.237 122.506 380.615C121.529 378.729 127.57 371.606 130.08 371.196Z" fill="#FFF5E8"/>
<path id="Vector_72" d="M165.605 373.22C165.076 369.759 162.92 365.88 165.306 362.628C167.693 359.375 175.14 362.519 175.129 364.506C175.124 365.547 166.451 374.004 165.605 373.22Z" fill="#FFF5E8"/>
<path id="Vector_73" d="M145.004 352.091C145.3 355.203 143.006 361.793 139.407 362.126C137.715 362.282 135.334 361.079 133.381 361.597L137.147 352.691L145.004 352.091Z" fill="#FFF5E8"/>
<path id="Vector_74" d="M134.432 352.625C133.221 358.638 131.223 362.263 124.392 360.012L127.635 352.168L134.429 352.625H134.432Z" fill="#FFF5E8"/>
<path id="Vector_75" d="M152.921 350.505C153.484 355.716 150.345 361.819 144.473 361.597C145.739 358.408 147.282 355.274 147.044 351.797L152.921 350.505Z" fill="#FFF5E8"/>
<path id="Vector_76" d="M160.847 347.334C160.5 349.617 162.237 353.215 161.108 355.255C160.617 356.145 154.845 359.054 153.981 358.423C156.785 356.354 154.7 351.284 155.823 349.442C156.177 348.861 160.453 346.914 160.847 347.337V347.334Z" fill="#FFF5E8"/>
<path id="Vector_77" d="M167.025 345.911C167.643 346.659 167.797 347.475 167.509 348.408C167.337 348.968 165.254 352.139 164.557 351.56C164.253 349.866 161.864 347.888 162.472 346.091C163 344.527 165.965 344.632 167.022 345.911H167.025Z" fill="#FFF5E8"/>
<path id="Vector_78" d="M171.409 338.889C171.663 341.058 171.094 343.096 169.562 344.686C168.798 343.909 167.479 343.093 167.675 341.83L171.409 338.889Z" fill="#FFF5E8"/>
<path id="Vector_79" d="M124.929 351.039C124.236 352.865 123.769 354.093 123.327 356.049C123.142 356.862 123.708 356.976 122.289 356.849C122.09 354.58 121.3 352.746 122.294 350.505L124.929 351.042V351.039Z" fill="#FFF5E8"/>
</g>
<g id="Group 2085661851">
<path id="Vector_80" d="M343.494 354.436C337.022 353.746 331.29 349.323 335.294 342.528C340.614 345.135 346.179 347.548 352.221 345.727C353.103 345.46 359.71 342.493 358.545 341.23C350.812 346.731 341.734 343.978 335.579 337.521L334.781 329.082C341.536 335.019 350.717 339.302 359.734 335.814C360.764 335.415 361.827 334.971 362.247 333.843C357.725 333.914 354.53 334.802 349.985 333.685C347.02 332.955 338.048 328.176 336.076 325.935C333.526 323.037 332.649 318.5 331.874 314.82C340.722 322.58 352.252 332.813 365.014 331.061C367.561 330.712 378.579 325.967 379.147 326.445C380.067 327.219 378.449 327.608 378.156 327.811C372.136 332.044 361.821 340.61 359.71 347.947C359.565 348.457 359.282 349.299 360.125 349.149C363.88 340.554 371.145 337.365 378.616 332.778C379.662 334.044 371.074 342.337 369.937 343.904C368.801 345.471 365.4 350.935 364.932 352.639C364.66 353.627 365.183 353.424 365.931 353.374C365.947 351.458 374.853 341.746 375.978 342.818C372.929 348.657 374.974 356.43 368.415 359.81C361.177 363.54 346.182 363.012 338.492 360.483C335.336 359.445 329.327 357.102 332.649 353.08C333.201 352.763 336.38 355.223 337.524 355.643C341.843 357.226 350.043 357.461 354.316 355.725C355.165 355.382 355.606 355.794 355.376 354.433C351.565 354.14 347.231 354.832 343.489 354.433L343.494 354.436Z" fill="#FFF5E8"/>
<path id="Vector_81" d="M362.25 401.445C362.578 392.168 356.6 388.192 348.088 391.772C347.366 392.076 347.023 392.258 346.381 392.707C345.12 393.587 344.372 395.275 343.238 396.158C342.208 388.586 336.055 384.115 328.669 387.146L323.688 391.407C323.151 385.169 323.315 380.63 315.762 380.583L321.835 373.988C323.188 375.153 323.278 377.111 324.208 378.472C328.756 385.124 349.639 387.138 357.253 386.678C363.088 386.327 368.751 384.765 374.081 382.472C374.779 382.625 376.994 389.693 377.025 390.67C377.078 392.179 374.94 396.319 373.87 397.479C371.423 400.129 365.823 401.751 362.25 401.445Z" fill="#FFF5E8"/>
<path id="Vector_82" d="M373.873 361.306C374.782 367.797 369.037 369.48 363.854 370.561C355.067 372.394 341.32 371.974 333.175 367.927C330.149 366.423 325.554 363.406 330.284 360.769C332.57 362 334.801 363.501 337.274 364.355C344.431 366.822 360.678 366.986 367.821 364.489C370.157 363.673 371.727 362.273 373.873 361.303V361.306Z" fill="#FFF5E8"/>
<path id="Vector_83" d="M378.098 322.747C378.447 323.986 377.765 323.642 377.421 323.951C371.795 329.019 362.083 329.069 355.151 326.937C349.903 325.323 338.571 317.687 335.809 313C335.315 312.16 335.17 311.576 335.31 310.598C337.004 308.934 343.587 315.822 345.167 316.847C354.179 322.691 367.657 324.068 378.095 322.747H378.098Z" fill="#FFF5E8"/>
<path id="Vector_84" d="M340.586 402.498C340.06 403.024 326.532 401.01 325.798 400.648C321.786 398.683 329.032 388.666 334.778 390.048C339.688 391.227 340.372 398.36 340.586 402.498Z" fill="#FFF5E8"/>
<path id="Vector_85" d="M315.606 384.128C319.028 383.349 319.356 384.374 320.246 387.182C320.857 389.108 321.108 390.699 321.068 392.744C321.047 393.848 320.407 399.254 319.726 399.309L312.144 395.814C311.861 392.572 311.586 385.045 315.606 384.131V384.128Z" fill="#FFF5E8"/>
<path id="Vector_86" d="M359.084 402.5L344.816 403.029C344.467 392.262 359.612 390.309 359.084 402.5Z" fill="#FFF5E8"/>
<path id="Vector_87" d="M371.762 317.469C371.17 318.695 368.504 318.93 367.262 319.039C355.79 320.053 352.122 318.035 343.234 311.897C342.658 311.498 341.849 312.053 342.18 310.6C352.145 312.375 361.337 317.694 371.762 317.469Z" fill="#FFF5E8"/>
<path id="Vector_88" d="M359.083 382.954L362.886 378.048C363.94 377.018 363.504 374.444 364.352 373.704C364.603 373.485 369.934 371.762 370.697 371.575C371.461 371.387 371.969 371.046 372.576 371.844C374.075 374.05 367.954 380.344 366.226 381.388C364.506 382.429 361.094 383.02 359.08 382.952L359.083 382.954Z" fill="#FFF5E8"/>
<path id="Vector_89" d="M362.777 373.982C360.09 380.709 355.56 384.246 347.989 382.954C350.7 380.452 352.978 378.587 353.766 374.74L362.777 373.982Z" fill="#FFF5E8"/>
<path id="Vector_90" d="M335.835 380.839C337.384 379.143 339.778 378.268 341.599 376.836C342.347 376.247 342.535 374.931 343.592 374.603C344.649 374.276 351.684 374.204 351.673 375.298C350.576 376.236 350.288 377.726 349.332 378.757C345.259 383.159 341.131 381.732 335.835 380.836V380.839Z" fill="#FFF5E8"/>
<path id="Vector_91" d="M340.062 373.454C341.745 375.024 333.333 379.465 331.393 379.262C331.153 379.235 328.027 378.334 327.91 378.197C326.93 377.029 329.02 376.345 329.496 375.859C330.735 374.588 331.864 373.283 333.016 371.938L340.059 373.457L340.062 373.454Z" fill="#FFF5E8"/>
<path id="Vector_92" d="M373.865 311.66L364.679 313.708C361.452 313.016 358.022 312.82 354.84 311.927C354.428 311.811 351.066 310.989 352.208 310.072C359.726 309.449 366.333 313.105 373.862 311.66H373.865Z" fill="#FFF5E8"/>
<path id="Vector_93" d="M331.584 370.306C332.625 371.809 326.328 376.478 325.799 376.09C324.607 372.977 325.35 370.877 326.862 368.171L331.587 370.306H331.584Z" fill="#FFF5E8"/>
<path id="Vector_94" d="M369.117 380.841L374.395 375.564C375.145 378.996 371.768 380.019 369.117 380.841Z" fill="#FFF5E8"/>
</g>
<g id="Group 2085661854">
<path id="Vector_95" d="M67.3702 76.5249C61.4188 69.8589 53.5938 74.8683 48.8845 80.2212C50.0367 65.8112 60.256 59.1134 73.71 65.4281C69.9812 59.1372 61.4082 59.6471 55.7529 62.7912C55.2111 62.1281 60.5969 54.1542 61.5827 53.5729C63.8897 52.2096 70.2032 52.6059 72.7798 53.4223C76.1254 54.4845 77.7639 56.7118 80.0446 59.0949C79.7274 52.5452 72.0742 49.195 66.3131 49.5834C71.1598 44.2278 76.6117 40.2858 83.71 44.6083C85.6735 45.8051 86.9209 48.3178 89.0271 49.0576C88.9769 44.8857 84.0932 40.2937 80.0525 40.0771C78.7259 38.8485 85.5176 37.0994 86.2787 37.0228C91.3817 36.5181 95.1582 40.6557 98.5355 43.776C97.9409 39.0361 94.2623 35.7202 89.5636 35.3186C89.4684 34.5339 90.9827 34.5366 91.5641 34.4256C92.2036 34.3041 92.8458 34.1957 93.4906 34.1059C95.7237 33.7968 98.0651 33.6858 100.253 34.3225C102.138 34.8721 103.734 36.0056 105.039 37.4534C105.808 38.3068 106.479 39.2448 107.098 40.2144C107.473 40.8036 107.83 41.4034 108.171 42.0111C108.348 42.3255 108.575 42.8724 108.676 43.2185C108.707 43.3295 108.742 43.4405 108.776 43.5514C108.805 43.6465 108.884 44.1063 108.964 44.1459C109.138 44.2331 109.318 44.0349 109.394 43.8553C109.833 42.8354 109.55 41.665 109.26 40.5923C108.842 39.044 108.321 37.5248 107.452 36.1615C107.169 35.7176 103.985 34.0927 107.246 34.2671C112.177 34.5339 115.79 37.5406 117.439 42.0401C118.179 44.0561 117.967 46.3864 119.408 47.9954C120.414 46.8567 120.425 45.4168 120.745 44.0455C120.89 43.422 120.333 43.0785 121.509 43.2502L127.896 45.8448L129.439 50.6349L130.784 46.4366C138.747 47.903 148.358 42.2911 148.189 33.736C146.794 34.7083 146.929 36.6661 146.099 38.2434C142.296 45.467 131.855 45.4009 125.459 41.9424C117.317 37.538 115.343 31.8918 104.63 31.0754C92.896 30.1797 84.5556 32.09 74.5874 38.0532C32.7878 63.0634 32.3835 128.973 79.2835 148.319C79.7063 148.493 80.803 148.739 80.3141 149.41C73.1709 153.87 64.1593 149.246 58.3771 144.395C20.8613 112.936 32.6795 49.5411 76.2338 29.6619C86.2311 25.099 103.913 22.3168 113.813 27.7041C122.013 32.1666 127.552 45.5172 138.871 38.9383C142.367 36.9065 145.198 29.6804 140.509 28.9696C135.7 28.2404 141.672 34.666 135.126 35.2024C127.616 35.818 124.91 23.6749 131.857 19.7804C135.597 17.6826 140.969 21.2996 142.505 16.6654C144.4 10.9426 134.709 8.9689 136.857 3.65298C137.674 1.63177 142.819 -2.10153 143.438 1.51551C142.219 1.3702 140.343 1.74274 140.375 3.26459C140.726 6.26074 143.469 6.77331 145.277 8.3982C149.809 12.4697 151.902 17.2176 146.567 21.8122C142.034 25.7172 133.961 23.4054 135.517 31.6223C137.399 31.6223 136.358 29.3739 138.184 28.2193C140.33 26.8612 144.088 26.782 146.87 24.7581C147.632 24.2033 148.889 22.8585 149.481 22.087C150.237 21.0962 150.348 19.4422 151.358 18.9561C154.111 31.5827 152.996 46.6718 139.4 52.1515C124.418 58.1861 117.473 48.3865 103.559 49.0655C84.3469 50.0008 68.2661 68.7439 70.0155 87.8728C70.877 97.284 78.2872 104.814 85.8162 109.601C81.498 115.293 82.8934 120.822 88.2343 125.116C88.2079 123.126 86.8284 121.581 86.5218 119.435C86.0303 115.985 86.5852 113.134 88.7945 110.397L95.3484 112.172C92.2538 118.233 97.4335 125.882 104.083 126.183C105.132 126.231 104.918 126.086 104.87 125.126C101.006 124.392 97.9303 120.091 97.5366 116.347C96.9816 111.065 98.4959 111.969 102.959 110.822C104.101 114.355 104.659 118.349 107.854 120.817C110.068 122.527 118.964 125.906 120.721 122.484C113.631 123.177 105.042 116.981 106.569 109.393L111.21 108.452C115.763 116.191 125.182 117.964 132.877 113.768C133.623 113.364 133.72 112.891 132.605 112.96C127.497 113.285 125.853 115.359 120.203 112.695C115.901 110.666 111.437 105.596 118.269 103.543C124.91 110.764 133.126 109.113 140.792 104.513C140.911 103.546 139.669 104.061 139.096 104.135C137.063 104.399 135.047 105.382 133.142 105.58C128.525 106.061 124.989 104.568 121.213 102.103C121.038 101.004 124.431 97.4821 125.33 97.2179C126.812 96.7793 132.33 99.6883 134.96 100.061C147.98 101.902 165.118 90.7923 167.621 77.7244C167.756 77.019 167.077 76.0678 167.436 75.4681C167.817 74.834 172.978 72.9211 173.525 73.3887C177.565 86.9903 195.401 89.5558 207.65 88.6997C215.116 88.1793 220.015 84.6362 226.114 80.7496C227.314 88.3114 235.007 90.9033 240.121 84.9849C234.5 86.6627 227.518 85.0404 230.483 77.7218C232.211 73.4574 243.741 69.4731 248.258 71.2988C250.168 72.0703 256.683 76.4615 258.567 77.8935C259.817 78.8447 265.53 83.2966 263.897 84.9797C256.72 83.6401 252.201 88.7552 246.484 91.6061C238.686 95.4952 230.705 96.2245 222.687 92.3802C225.01 97.8626 228.572 96.5415 232.999 97.1281C234.738 97.3579 232.869 99.2444 232.14 99.9763C229.204 102.914 224.608 103.813 220.575 103.472C224.087 106.663 228.189 105.303 232.187 103.72C242.127 99.7913 246.934 91.6721 257.681 88.5386C271.64 84.4697 285.129 88.6575 296.616 96.8982C305.205 103.06 310.956 113.773 321.476 117.205C321.558 118.191 319.764 117.715 319.172 117.657C297.943 115.57 286.365 90.0155 262.19 97.2707C246.307 102.037 236.122 125.531 217.132 112.452L214.241 108.22C214.074 115.779 223.858 120.973 230.61 120.896C225.813 129.909 228.11 140.105 236.458 145.949C239.492 148.073 245.71 148.512 249.257 147.719C254.328 146.586 262.309 135.462 259.666 130.236C259.444 129.798 257.938 129.761 258.614 127.761L262.84 128.281C261.616 124.593 254.267 126.136 253.073 128.82C251.981 131.275 254.09 135.877 248.831 136.239C241.408 136.752 241.947 127.924 244.775 123.166C249.146 115.813 259.214 115.607 265.742 120.363C271.217 124.352 270.715 130.308 269.563 136.326C267.277 148.25 255.052 156.467 243.094 155.154C231.186 153.846 231.04 141.132 226.064 132.567C223.102 127.465 218.752 121.887 213.181 119.565C211.109 118.701 204.994 116.727 203.67 118.77C214.056 119.11 220.871 125.552 224.148 135.011C236.188 169.773 200.126 202.934 166.162 189.816C150.758 183.866 135.066 177.628 122.93 194.133C121.815 195.65 119.778 201.066 119.4 201.177C118.385 201.47 118.636 200.693 118.343 200.144C115.029 193.885 115.14 186.674 117.981 180.209C120.148 175.279 125.385 169.157 131.286 169.485C131.522 170.396 130.911 170.542 130.502 171.07C127.888 174.449 123.171 178.217 123.099 182.682C128.369 175.139 137.188 168.586 145.721 165.157C152.217 162.547 153.786 163.717 160.023 163.617C167.92 163.49 171.3 155.793 168.792 148.884L168.02 155.764C166.778 159.503 163.136 161.086 159.423 159.574C155.795 158.1 155.235 151.886 150.618 152.084C146.02 152.282 143.586 159.664 140.533 162.084C135.171 166.341 124.384 165.965 118.498 162.988C112.523 159.965 108.779 151.928 102.92 148.459C95.1793 143.877 87.5974 147.183 79.7962 140.414C72.5393 134.118 72.4494 124.21 75.7158 115.765L80.5705 107.686C73.5885 110.513 70.0102 120.461 70.5467 127.483C70.8955 132.065 73.3982 138.025 76.3474 141.481C59.5108 136.775 58.4035 116.201 69.4791 105.046C65.6921 105.876 62.1826 109.498 60.7661 112.967C60.219 114.307 58.9056 119.25 58.8713 120.622C58.858 121.169 58.9188 121.716 59.0166 122.255C59.2174 123.351 59.5689 124.41 59.8226 125.494C59.9521 126.041 60.0578 126.595 60.108 127.156C60.1503 127.634 60.2481 128.313 59.9653 128.738C59.9098 128.82 59.8332 128.894 59.7381 128.926C59.672 128.947 59.6033 128.944 59.5372 128.936C59.4315 128.923 59.3311 128.891 59.2359 128.847C59.1567 128.807 59.0827 128.759 59.0113 128.707C58.7629 128.519 58.5462 128.297 58.3533 128.054C56.736 126.033 55.2191 123.845 54.2386 121.417C53.5859 119.805 53.1921 118.093 53.1498 116.352C53.1075 114.611 53.4273 112.769 53.977 111.063C54.6403 109.007 55.6075 107.06 56.691 105.197C58.7893 101.583 61.2655 99.9657 64.738 97.9048C65.4146 97.5032 66.0753 98.0026 65.7766 96.5917C64.3311 96.996 62.9172 97.5112 61.5589 98.1453C60.2005 98.7794 58.7682 99.6064 57.5103 100.547C56.2523 101.488 55.1583 102.521 54.2016 103.72C53.245 104.92 52.4733 106.238 51.9289 107.662C51.6488 108.397 51.4294 109.152 51.2735 109.921C51.2259 110.154 51.1863 110.386 51.1493 110.621C51.1255 110.772 51.0647 110.92 51.0515 111.07C51.0436 111.166 51.0779 112.352 51.0489 112.344C50.8427 112.288 50.6578 112.162 50.5071 112.008C50.3063 111.808 50.1398 111.575 50.0209 111.319C49.7909 110.819 49.6905 110.249 49.5716 109.718C49.2413 108.254 49.0325 106.761 48.9744 105.26C48.9189 103.873 48.9955 102.478 49.2228 101.11C49.4368 99.8257 49.7883 98.5654 50.2904 97.3632C50.7925 96.1611 51.3924 95.1174 52.1456 94.1187C52.8988 93.12 53.7761 92.2375 54.7592 91.4766C55.7423 90.7157 56.913 90.0366 58.1022 89.5346C59.3972 88.9877 60.7608 88.6152 62.1482 88.388C62.9014 88.2664 63.6625 88.1872 64.4236 88.1449C64.8226 88.1238 65.2243 88.1132 65.6234 88.1106C65.7476 88.1106 66.8126 88.0604 66.839 88.137C66.5272 87.2519 64.1461 86.6917 63.3638 86.6019C58.9664 86.1026 56.144 87.0194 52.6133 89.4977L47.2962 94.4754C47.4786 94.3037 47.5024 93.4344 47.5552 93.1755C47.6451 92.729 47.7323 92.2824 47.8248 91.8359C48.0071 90.9587 48.2 90.0869 48.422 89.2202C48.8501 87.5425 49.3919 85.8833 50.1715 84.3323C50.7344 83.2121 51.4268 82.1579 52.246 81.2094C52.6424 80.7496 53.0705 80.3163 53.5224 79.9121C54.0536 79.4339 54.6562 79.0402 55.3036 78.739C56.8496 78.023 58.4009 77.2938 60.0393 76.834C61.5668 76.406 63.1101 76.5196 64.6799 76.5196H67.3702V76.5249ZM221.101 95.0117C208.208 98.3936 190.686 100.312 180.166 90.2507C177.761 87.9494 176.833 84.6758 174.619 82.3349C175.007 90.6655 183.522 99.218 191.397 101.205C196.788 102.566 208.419 102.338 213.696 100.544C214.576 100.246 222.584 96.3962 221.101 95.0117ZM204.199 110.333C202.333 110.5 200.98 112.117 199.148 112.407C187.917 114.193 185.39 104.711 177.38 100.431C162.584 92.5255 144.73 101.831 143.977 118.775C145.34 119.044 144.902 118.487 145.298 117.747C146.403 115.697 147.024 113.311 148.292 111.213C154.659 100.687 166.63 98.1743 177.198 104.312C181.561 106.846 185.684 114.122 189.793 114.96C194.719 115.964 201.202 114.653 204.201 110.333H204.199ZM180.42 117.192C181.714 115.544 175.404 110.405 173.916 109.704C162.854 104.505 150.33 109.726 151.371 123C152.901 123.298 152.211 122.55 152.56 121.84C154.04 118.814 154.804 115.916 157.695 113.747C165.285 108.048 174.159 111.398 180.42 117.192ZM178.459 120.21C177.713 119.623 176.677 117.631 175.406 116.666C169.703 112.357 159.783 112.967 155.882 119.327C154.725 121.214 154.888 124.788 153.715 125.613C150.184 127.111 147.251 126.656 143.662 126.21C143.012 126.128 142.875 126.194 142.869 126.471C142.862 126.92 143.16 127.319 143.58 127.483C147.092 128.86 150.324 129.713 154.233 129.296C155.486 129.161 156.741 128.168 157.946 128.286C159.127 128.403 160.602 130.162 161.931 130.664C168.591 133.185 175.586 129.478 178.078 123.01C182.724 125.119 188.564 124.366 192.573 121.15C189.119 121.137 181.344 122.484 178.459 120.207V120.21ZM147.14 134.63C143.818 133.948 139.989 132.649 138.419 129.349L136.582 123.533C136.041 130.532 138.395 134.107 145.441 135.008C146.014 135.082 147.259 135.597 147.14 134.63ZM173.004 166.864C177.299 179.551 193.903 181.691 204.722 176.605C218.205 170.267 222.042 157.849 221.128 143.843C220.279 130.847 211.151 117.591 197.335 126.437C199.352 126.772 200.861 125.327 202.877 125.116C207.449 124.632 209.687 126.392 212.666 129.592C220.182 137.661 221.117 149.524 217.283 159.585C211.81 173.947 189.029 183.134 177.777 170.285C177.41 169.865 174.37 165.051 174.286 164.734C174.008 163.696 175.081 163.083 175.176 161.852C175.417 158.771 175.113 155.13 174.238 152.168C174.059 151.555 173.805 149.938 173.038 149.944C173.147 155.186 175.118 159.706 170.938 163.957C164.36 170.647 156.522 167.001 149.048 170.066C145.565 171.495 142.016 174.687 141.035 178.434C140.898 178.954 140.359 180.175 141.329 180.045C142.563 176.581 146.863 174.027 150.179 172.782C163.908 167.633 167.399 178.547 177.6 183.673C183.21 186.492 190.369 188.415 196.405 185.723C197.388 185.285 200.382 183.554 199.717 182.167C191.881 187.282 184.299 185.438 176.984 180.592C172.79 177.815 169.542 173.834 165.121 171.337C165.113 170.872 169.03 169.141 169.836 168.666C170.877 168.05 171.366 166.407 173.009 166.872L173.004 166.864ZM131.818 146.771C132.277 146.237 127.032 139.661 126.284 138.842C118.826 130.664 112.182 130.617 101.805 132.868C96.4082 134.038 91.4134 137.61 86.646 132.519C84.22 129.93 84.4367 126.878 82.1693 124.587C81.5192 131.364 85.2507 138.633 92.9462 137.75C101.189 136.805 103.705 132.548 114.001 134.749C121.971 136.451 125.739 142.253 131.82 146.771H131.818ZM135.182 133.906C132.875 131.782 131.865 128.4 129.714 126.173C131.078 130.025 132.7 134.688 136.712 136.274C137.425 136.556 138.242 136.308 138.691 135.687C137.425 135.729 136.094 134.744 135.184 133.906H135.182ZM179.059 134.841C181.178 132.802 183.802 130.059 184.648 127.23C179.111 131.882 173.99 138.205 165.94 137.219C162.912 136.849 159.209 135.122 156.125 134.627C163.313 141.6 171.775 141.851 179.059 134.839V134.841ZM139.743 143.608C135.055 140.852 131.17 136.918 128.475 132.197L126.545 128.815C126.58 135.679 131.128 142.504 138.025 144.007C138.557 144.123 139.878 144.541 139.746 143.608H139.743ZM207.182 134.281C201.788 128.506 193.155 130.139 187.296 134.361C189.228 134.902 191.212 133.246 193.094 132.762C205.419 129.594 210.573 140.559 209.476 151.254C208.638 159.424 198.707 167.609 190.438 166.074C185.515 165.16 183.377 162.053 181.054 158.031C180.372 156.85 180.412 154.425 178.847 154.697C179.497 166.954 190.544 171.258 201.162 166.708C212.597 161.807 215.404 143.082 207.185 134.284L207.182 134.281ZM184.13 146.771C181.196 165.508 210.433 160.156 202 142.895C199.989 138.781 196.91 137.28 192.439 137.917C191.82 138.004 189.563 138.58 189.41 139.37C195.327 137.6 201.754 142.284 200.985 148.57C200.02 156.467 187.779 159.5 185.406 151.035C185.005 149.6 185.734 147.447 184.13 146.771ZM136.049 156.285C133.216 159.635 127.14 158.425 123.533 156.908C117.574 154.398 116.17 148.71 112.256 144.414C108.694 140.504 104.268 139.515 99.0693 139.909C98.8183 141.42 99.3918 140.786 100.29 141.035C111.614 144.171 109.268 145.201 115.227 153.59C118.842 158.681 126.139 162.531 132.489 161.434C140.023 160.134 140.354 154.517 144.822 149.997C149.22 145.55 155.192 147.672 157.441 153.106C159.098 152.425 156.868 148.393 156.083 147.603C154.566 146.076 150.258 144.897 148.192 145.423C144.101 146.461 143.155 150.573 139.696 152.266C134.246 154.932 129.297 152.842 125.274 148.829C123.607 147.164 122.431 144.559 120.459 143.077C119.223 142.147 115.565 139.975 114.918 142.01C121.609 143.074 121.345 149.825 126.057 153.326C128.866 155.413 132.547 156.734 136.049 156.282V156.285ZM159.64 145.368C158.406 144.123 155.821 142.559 154.011 142.551L161.109 151.336C161.619 151.97 162.629 151.471 162.447 150.678C162.185 149.54 161.471 148.279 161.191 147.783C160.821 147.125 160.108 145.838 159.64 145.368ZM176.728 189.549C174.553 187.528 171.759 186.246 169.376 184.492C167.74 183.287 166.376 181.567 164.526 180.36C159.917 177.35 152.988 174.983 148.728 179.784C150.449 180.262 151.855 178.954 153.741 178.949C161.68 178.917 167.399 187.544 174.077 189.295C174.973 189.53 175.8 189.655 176.725 189.549H176.728Z" fill="#FFF5E8"/>
<path id="Vector_96" d="M274.195 101.349C290.865 103.137 302.064 127.202 324.245 122.863C324.95 122.726 325.281 121.88 325.17 123.26C321.811 126.663 316.649 131.025 311.723 131.474C309.868 131.643 303.692 130.813 302.979 131.178C302.759 131.292 302.329 131.804 302.461 131.973L308.473 133.564L308.795 134.61C305.759 136.502 302.53 139.265 299.797 141.731C298.748 142.676 298.188 144.071 296.901 145.173C291.515 149.778 278.703 149.316 277.096 140.962L275.764 141.487C276.589 149.501 281.89 151.089 288.481 153.1C288.872 153.218 289.641 152.893 289.25 153.892C288.819 154.994 285.265 158.653 284.152 159.361C279.723 162.183 273.692 161.731 270.537 157.301C270.265 156.92 267.239 150.058 266.539 153.385C266.2 154.997 269.958 160.637 271.274 161.845C273.851 164.21 276.766 165.187 280.273 164.733C281.052 165.491 275.162 172.918 274.213 173.724C271.792 175.782 268.243 175.594 265.606 174.115L262.847 166.846C262.987 169.058 262.405 173.428 263.655 175.272C264.427 176.413 268.959 177.219 268.632 178.694C268.433 179.579 256.203 189.899 255.09 190.01C253.838 190.137 252.4 186.908 251.996 185.872C251.52 184.66 252.408 182.821 250.696 183.217C249.525 186.749 250.484 189.082 252.043 192.197C247.612 195.471 244.853 198.557 241.634 202.948C241.158 203.595 240.257 203.865 239.908 204.391C238.272 206.848 238.172 210.322 237.078 212.653C236.142 214.65 234.076 211.802 233.349 210.856C227.815 203.643 226.734 193.339 228.019 184.58C228.542 181.008 230.397 176.699 230.614 172.902C230.733 170.831 229.401 161.367 230.091 160.508C231.327 160.165 230.984 160.83 231.296 161.182C238.756 169.563 239.871 180.887 238.545 191.664C240.046 191.936 239.409 191.299 239.731 190.504C242.696 183.172 240.796 173.14 237.247 166.292C234.977 161.914 231.116 158.619 231.153 153.11L237.485 159.187C242.754 165.636 245.471 172.678 245.146 181.101C247.194 176.297 246.303 169.116 244.467 164.355C244.004 163.155 240.579 158.45 241.19 157.866C248.632 157.068 253.917 163.293 254.414 170.286C254.53 171.909 252.908 175.637 254.921 175.296C255.069 171.618 257.104 168.989 256.473 165.023C256.076 162.527 253.671 160.157 252.81 157.866C259.155 154.849 260.067 159.515 263.37 163.671C263.843 160.268 261.668 157.538 260.69 154.479C264.134 152.164 267.614 147.673 269.118 143.794C270.622 139.915 270.603 133.405 272.086 130.388C272.194 130.169 272.712 129.735 272.878 129.868C273.465 133.358 278.122 134.869 281.335 134.615C280.508 133.363 278.571 132.935 277.376 131.979C272.191 127.823 272.937 121.545 266.718 117.281C261.208 113.502 255.553 112.382 249.11 114.546C248.336 113.941 256.615 106.252 258.061 105.806C261.317 104.799 268.566 105.476 271.673 107.048C280.27 111.394 285.587 123.048 295.344 124.052C297.181 124.242 300.481 124.472 301.938 123.262C300.014 122.816 298.084 123.08 296.102 122.763C282.812 120.633 283.529 106.535 270.957 103.008L266.015 101.346C268.65 101.547 271.618 101.069 274.205 101.346L274.195 101.349ZM283.436 121.421L281.914 122.652C284.015 128.166 287.574 132.57 293.473 134.095C293.74 132.951 292.836 132.924 292.268 132.401C288.917 129.323 283.854 126.507 283.436 121.423V121.421Z" fill="#FFF5E8"/>
<path id="Vector_97" d="M0.432286 125.108C0.466641 125.131 0.498353 125.158 0.530066 125.187C0.630488 125.279 0.72034 125.38 0.802264 125.488C0.968754 125.713 1.08768 125.966 1.25152 126.191C1.39687 126.386 1.56336 126.569 1.71135 126.769C2.01262 127.179 2.31917 127.586 2.62837 127.99C3.91272 129.665 5.25786 131.293 6.66377 132.867C8.06969 134.442 9.52053 135.943 11.0374 137.396C12.5543 138.849 14.1135 140.231 15.7309 141.555C17.3482 142.878 19.0157 144.136 20.7309 145.325C22.446 146.514 24.2166 147.639 26.0242 148.688C27.8318 149.737 29.7002 150.723 31.595 151.624C33.4898 152.525 35.4507 153.365 37.4274 154.113C39.4042 154.86 41.4338 155.539 43.4766 156.129C45.7678 156.789 54.1531 157.983 55.189 158.678C56.8724 159.809 57.5463 165.04 57.2001 166.98C55.9263 174.113 47.4565 171.606 42.7763 170.031C25.2472 164.134 6.29908 147.584 0.781122 129.62C0.609347 129.058 0.474569 128.479 0.345077 127.903C0.154802 127.057 -0.0936113 126.159 0.035881 125.293C0.0464518 125.224 0.0596653 125.147 0.109877 125.1C0.165373 125.044 0.255225 125.036 0.329221 125.06C0.363576 125.071 0.397931 125.089 0.427 125.11L0.432286 125.108ZM48.873 164.734L36.1959 161.563C36.3413 162.475 37.2451 162.483 37.9005 162.76C40.4348 163.833 44.2985 165.133 47.0125 165.276C47.5965 165.305 49.0104 165.622 48.873 164.734Z" fill="#FFF5E8"/>
<path id="Vector_98" d="M40.4147 130.926C37.2065 130.107 33.9401 130.033 30.8191 128.797C29.8703 128.48 28.9137 127.938 28.1209 127.351C27.2699 126.72 26.3661 125.933 25.4755 125.367C25.1029 125.129 24.7091 124.886 24.2678 124.855C24.1462 124.847 24.022 124.855 23.9137 124.907C23.8053 124.96 23.7155 125.061 23.6996 125.18C23.6917 125.24 23.7049 125.298 23.7208 125.357C23.8318 125.769 24.0775 125.972 24.4158 126.186C24.7831 126.419 25.1505 126.657 25.5125 126.9C26.234 127.38 26.9502 127.875 27.6637 128.366C29.6114 129.708 31.5775 131.056 33.7181 132.078C36.7281 133.515 41.6964 134.379 44.0801 135.978C46.0067 137.27 48.2582 140.036 49.9258 141.754C45.7794 142.824 41.7096 141.011 37.9517 139.465C36.8656 139.019 35.7953 138.533 34.7435 138.012C31.9501 136.63 29.2784 135 26.7625 133.161C24.2229 131.307 21.8392 129.238 19.6378 126.992C17.4364 124.746 15.4121 122.308 13.6098 119.724C11.8075 117.14 10.2351 114.424 8.91637 111.578C7.59767 108.732 6.54852 105.8 5.79535 102.772C5.42008 101.261 5.11882 99.7308 4.89683 98.1905C4.67484 96.6501 4.43171 95.0569 4.45021 93.5298C4.45021 93.4426 4.45286 93.3501 4.48721 93.2709C4.52157 93.1916 4.59556 93.1203 4.68277 93.115C4.74619 93.115 4.80433 93.1441 4.85455 93.1784C5.11353 93.3554 5.26152 93.6513 5.3963 93.934C6.17854 95.5563 6.94756 97.1865 7.75623 98.7955C9.0353 101.34 10.4042 103.842 11.9608 106.23C13.372 108.394 14.9417 110.455 16.6991 112.355C18.4565 114.254 20.502 116.078 22.6188 117.687C25.0791 119.555 27.6928 121.211 30.3698 122.749C34.3471 125.032 39.8677 125.539 40.4121 130.926H40.4147Z" fill="#FFF5E8"/>
<path id="Vector_99" d="M242.232 65.9703C242.393 67.3469 242.221 66.8052 241.463 67.0272C229.988 70.4117 222.956 80.0369 212.007 83.5403C202.311 86.6395 188.503 85.6223 180.416 78.9061C178.87 77.622 173.852 72.4488 176.73 70.956L177.94 70.771C185.258 77.1861 195.429 81.535 205.268 79.4424C216.455 77.0645 225.591 68.4037 234.568 61.8856L242.232 65.9703Z" fill="#FFF5E8"/>
<path id="Vector_100" d="M65.7798 174.236C71.3849 170.904 73.4463 164.201 68.4304 159.189L69.2893 158.473C76.2343 158.262 81.0282 154.299 87.1619 159.469C91.3611 163.007 92.1513 168.711 88.5017 172.928C80.9277 173.652 73.3908 175.546 65.7798 174.239V174.236ZM83.211 165.792L75.2909 169.48C76.5858 170.143 84.9922 167.61 83.211 165.792Z" fill="#FFF5E8"/>
<path id="Vector_101" d="M231.142 60.1555C216.869 72.6288 197.656 85.0415 180.437 69.3923L186.509 65.9496C188.719 67.3288 190.492 69.1228 193.087 69.9365C195.928 70.8269 202.392 70.7001 205.386 70.0501C211.66 68.6895 215.989 62.89 220.946 59.2017L231.142 60.1528V60.1555Z" fill="#FFF5E8"/>
<path id="Vector_102" d="M257.558 131.461C258.42 131.319 258.058 132.175 258.084 132.772C258.583 144.424 242.904 149.058 235.378 139.631C232.215 135.67 231.39 128.006 233.393 123.411C234.297 121.334 240.764 118.084 243.023 117.181C243.549 116.969 244.133 116.359 244.345 117.469C244.535 118.462 240.605 121.276 239.997 122.618C238.671 125.551 238.864 131.837 240.296 134.714C241.282 136.69 245.972 140.529 248.174 140.336C252.336 139.969 255.933 135.007 257.561 131.461H257.558Z" fill="#FFF5E8"/>
<path id="Vector_103" d="M158.047 88.4853C151.697 95.1144 136.314 100.428 128.129 94.7445L131.673 91.3943C143.23 93.4683 156.457 89.3995 158.589 76.5087L163.909 75.5654L165.098 76.2762C165.473 78.2419 159.673 86.7891 158.047 88.4853Z" fill="#FFF5E8"/>
<path id="Vector_104" d="M217.93 58.5727L207.85 65.6561C202.713 69.1781 193.797 69.511 189.407 64.6336C189.169 63.5874 189.803 63.8859 190.456 63.6059C199.045 59.9043 208.553 58.1261 217.93 58.5727Z" fill="#FFF5E8"/>
<path id="Vector_105" d="M98.9244 169.87C98.38 170.538 93.1871 171.994 92.7299 171.595C94.4661 166.075 93.1976 161.122 88.7632 157.341L83.75 154.704C91.2288 151.655 102.04 156.384 100.526 165.402C100.439 165.92 99.1094 169.645 98.9244 169.87Z" fill="#FFF5E8"/>
<path id="Vector_106" d="M56.8048 173.177C56.789 171.796 58.1526 171.341 58.7816 170.142C60.4861 166.9 61.5062 162.786 58.9243 159.708C58.9243 158.535 65.5627 158.67 66.9422 161.19C70.6631 167.999 64.1145 175.772 56.8048 173.175V173.177Z" fill="#FFF5E8"/>
<path id="Vector_107" d="M155.589 77.0555C154.405 85.283 143.194 90.2264 135.52 89.1986C135.319 88.3188 135.805 88.1286 136.318 87.6266C137.975 86.0017 145.66 80.654 147.832 79.5972C148.778 79.1375 155.232 76.6803 155.589 77.0581V77.0555Z" fill="#FFF5E8"/>
<path id="Vector_108" d="M102.764 159.712C102.24 157.11 97.1215 153.126 94.8408 151.786C103.81 149.535 106.107 160.722 112.79 163.937C112.798 164.714 104.421 168.764 103.031 168.96C101.421 169.187 102.764 168.307 102.764 168.162C102.764 165.876 103.155 161.657 102.764 159.71V159.712Z" fill="#FFF5E8"/>
<path id="Vector_109" d="M158.77 122.475C159.243 123.133 159.877 123.728 160.615 124.227C164.375 126.785 169.486 124.938 170.987 120.647C171.273 119.828 171.661 119.22 172.24 119.299C175.168 119.709 174.845 124.877 172.478 126.943C167.782 131.041 158.408 129.458 158.77 122.475Z" fill="#FFF5E8"/>
<path id="Vector_110" d="M163.865 117.594C168.21 116.22 172.263 119.781 167.898 121.092C164.111 122.231 161.51 118.336 163.865 117.594Z" fill="#FFF5E8"/>
</g>
</g>
</svg>
