<svg width="962" height="198" viewBox="0 0 962 198" fill="none" xmlns="http://www.w3.org/2000/svg">
<path d="M961.411 0V197.912H932.903V0H961.411Z" fill="#FFF5E8"/>
<path d="M903.268 0C910.395 0 916.425 5.75644 916.425 13.1576V197.912H888.191V112.936H859.683V197.912H831.449V13.1576C831.449 5.75644 837.48 0 844.607 0H903.268ZM859.683 84.7018H888.191V41.3915C888.191 33.9904 882.161 28.2339 875.034 28.2339H872.841C865.714 28.2339 859.683 33.9904 859.683 41.3915V84.7018Z" fill="#FFF5E8"/>
<path d="M786.738 0H814.972V197.912H786.738V112.936H758.23V197.912H729.996V0H758.23V84.7018H786.738V0Z" fill="#FFF5E8"/>
<path d="M717.701 0V28.2339H689.467V197.912H660.959V28.2339H632.725V0H660.959H689.467H717.701Z" fill="#FFF5E8"/>
<path d="M493.089 0H564.908C572.035 0 578.065 5.75644 578.065 13.1576V184.754C578.065 192.155 572.035 197.912 564.908 197.912H493.089V0ZM521.323 169.678H536.674C543.801 169.678 549.831 163.647 549.831 156.52V41.3915C549.831 33.9904 543.801 28.2339 536.674 28.2339H521.323V169.678Z" fill="#FFF5E8"/>
<path d="M463.448 0C470.575 0 476.606 5.75644 476.606 13.1576V197.912H448.372V112.936H419.864V197.912H391.63V13.1576C391.63 5.75644 397.66 0 404.787 0H463.448ZM419.864 84.7018H448.372V41.3915C448.372 33.9904 442.341 28.2339 435.214 28.2339H433.021C425.894 28.2339 419.864 33.9904 419.864 41.3915V84.7018Z" fill="#FFF5E8"/>
<path d="M290.176 0H361.995C369.122 0 375.152 5.75644 375.152 13.1576C375.152 13.1576 375.152 65.2396 375.152 79.4936C375.152 93.7477 360.624 99.23 360.624 99.23C360.624 99.23 375.152 103.342 375.152 120.063C375.152 134.043 375.152 184.754 375.152 184.754C375.152 192.155 369.122 197.912 361.995 197.912H290.176V0ZM346.918 41.3915C346.918 33.9904 340.888 28.2339 333.761 28.2339H318.41V84.7018H333.761C340.888 84.7018 346.918 78.9454 346.918 71.5443V41.3915ZM318.41 169.678H333.761C340.888 169.678 346.918 163.647 346.918 156.52V126.093C346.918 118.966 340.888 112.936 333.761 112.936H318.41V169.678Z" fill="#FFF5E8"/>
<path d="M231.405 56.4679H203.171V41.3915C203.171 33.9904 197.14 28.2339 190.013 28.2339H187.82C180.693 28.2339 174.663 33.9904 174.663 41.3915V156.52C174.663 163.647 180.693 169.678 187.82 169.678H190.013C197.14 169.678 203.171 163.647 203.171 156.52V112.936H188.917V84.7018H218.247C225.374 84.7018 231.405 90.7324 231.405 97.8594V184.754C231.405 192.155 225.374 197.912 218.247 197.912H159.586C152.459 197.912 146.429 192.155 146.429 184.754V13.1576C146.429 5.75644 152.459 0 159.586 0H218.247C225.374 0 231.405 5.75644 231.405 13.1576V56.4679Z" fill="#FFF5E8"/>
<path d="M129.962 0V197.912H101.454V0H129.962Z" fill="#FFF5E8"/>
<path d="M0 0H71.8184C78.9454 0 84.9759 5.75644 84.9759 13.1576C84.9759 13.1576 84.9759 65.2396 84.9759 79.4936C84.9759 93.7477 70.4478 99.23 70.4478 99.23C70.4478 99.23 84.9759 103.342 84.9759 120.063C84.9759 134.043 84.9759 184.754 84.9759 184.754C84.9759 192.155 78.9454 197.912 71.8184 197.912H0V0ZM56.742 41.3915C56.742 33.9904 50.7114 28.2339 43.5844 28.2339H28.2339V84.7018H43.5844C50.7114 84.7018 56.742 78.9454 56.742 71.5443V41.3915ZM28.2339 169.678H43.5844C50.7114 169.678 56.742 163.647 56.742 156.52V126.093C56.742 118.966 50.7114 112.936 43.5844 112.936H28.2339V169.678Z" fill="#FFF5E8"/>
</svg>
